<svg xmlns="http://www.w3.org/2000/svg" xml:space="preserve" viewBox="0 0 750 500"><path d="M496.573 326.831h-1.497v-19.2H415.59l-6.626 6.626v12.574h-1.497v-13.194l7.503-7.503h81.603z"></path><path d="M460.912 326.831h-1.496v-6.359h32.876v1.497h-31.38zM396.912 326.831h-1.497v-29.009h16.873v3.741h19.408v1.496h-20.904v-3.74h-13.88z"></path><path d="M430.206 301.563h1.497v6.055h-1.497zM413.93 316.246h2.909v4.545h-2.909zM419.956 316.246h2.909v4.545h-2.909zM425.982 316.246h2.909v4.545h-2.909zM432.008 316.246h2.909v4.545h-2.909zM439.852 316.246h2.909v4.545h-2.909zM445.878 316.246h2.909v4.545h-2.909zM451.904 316.246h2.909v4.545h-2.909zM519.208 300.55h-2.586v2.91h-3.906v-4.156h-9.393v4.156h-4.363v23.471h1.496v-21.975h4.364V300.8h6.4v4.156h6.899v-2.909h1.089z"></path><path d="M503.427 309.061h3.924v1.52h-3.924zM510.006 309.061h3.924v1.52h-3.924zM503.427 313.946h3.924v1.52h-3.924zM510.006 313.946h3.924v1.52h-3.924zM503.427 318.832h3.924v1.52h-3.924zM510.006 318.832h3.924v1.52h-3.924zM503.427 323.717h3.924v1.519h-3.924zM510.006 323.717h3.924v1.519h-3.924zM271.31 326.831h-1.496v-7.979h-38.401v7.979h-1.496v-9.476h41.393zM209.387 326.831h-1.496v-7.979h-38.816v7.979h-1.496v-9.476h41.808z"></path><path d="M213.959 326.831h-1.496v-15.087h18.95v2.078h20.946v-2.909h6.691v2.078h3.533v1.247h5.486v1.497h-6.982v-1.247h-3.533v-2.078h-3.699v2.909h-23.938v-2.078h-15.958zM171.337 309.459v1.497h21.801v3.927h1.496v-5.424zM175.932 287.848v-3.117h-10.269v1.497h8.773v3.117h4.696v-1.497zM222.686 308.96h-1.496v-22.888h-38.608v20.602h-1.496v-22.099h41.6zM205.647 282.986h-1.496v-23.564H186.53v22.683h-1.496v-24.179h20.613z"></path><path d="M218.322 282.986h-1.496v-23.564h-11.927v-1.496h13.423z"></path><path d="M231.413 301.688h-1.496v-42.266h-12.343v-1.496h13.839zM241.388 311.527h-7.107v-1.818h-4.364v-3.533h-4.862v-1.497h6.358v3.533h4.364v1.818h4.115v-4.727h5.111v1.497h-3.615zM392.039 326.831h-1.496v-11.2h-7.439v6.338h-16.457v-13.117h-3.533v-5.585h-113.83v8.395h-1.496v-9.892H364.61v5.585h3.533v13.117h13.465v-6.338h10.431z"></path><path d="M275.258 326.831h-1.496v-15.918h3.741v-2.701h27.138v1.497h-25.642v2.701h-3.741z"></path><path d="M290.323 326.831h-1.496v-9.849h-8.582v9.849h-1.496v-11.346h11.574zM319.519 326.831h-1.496v-6.836h-17.622v6.836h-1.496v-8.333h20.614z"></path><path d="M363.363 326.831h-1.496v-4.862h-21.402v-6.338h-28.884v-3.013H301.44v3.615h-1.496v-5.112h13.133v3.013h28.883v6.338h21.403zM251.362 298.778h-1.496V270.02h-5.611v-2.286h-10.473v-1.497h11.969v2.286h5.611zM268.817 287.557h-1.496V277.5h-13.383v-1.496h14.879zM300.692 299.527h-8.312a.89.89 0 0 1-.682-.319c-.163-.19-.575-.67-.18-3.733h-3.378v4.052h-6.067v-4.052h-3.325v-4.052H261.75v7.356h-1.496v-8.852h19.99v4.052h3.325v4.052h3.076v-4.052h6.607l-.132.862c-.176 1.147-.302 2.534-.265 3.19h7.837zM321.596 298.778h-1.495v-27.722l-5.263-7.893H287.88l-4.987 11.221h-9.297v13.173H272.1v-14.67h9.82l4.987-11.221h28.731l5.958 8.937z"></path><path d="M312.453 298.778h-1.495v-24.187h-24.603v-1.496h26.098zM353.867 302.519h1.496v10.714h-1.496zM171.943 317.896h1.496v5.507h-1.496zM176.306 317.896h1.496v5.507h-1.496zM180.67 317.896h1.496v5.507h-1.496zM185.034 317.896h1.496v5.507h-1.496zM189.397 317.896h1.496v5.507h-1.496zM193.761 317.896h1.496v5.507h-1.496zM198.125 317.896h1.496v5.507h-1.496zM202.488 317.896h1.496v5.507h-1.496zM216.826 312.493h1.496v10.909h-1.496zM221.19 312.493h1.496v10.909h-1.496zM225.554 312.493h1.496v10.909h-1.496zM234.281 317.896h1.496v5.507h-1.496zM238.437 317.896h1.496v5.507h-1.496zM242.593 317.896h1.496v5.507h-1.496zM246.749 317.896h1.496v5.507h-1.496zM250.905 317.896h1.496v5.507h-1.496zM255.061 317.896h1.496v5.507h-1.496zM259.217 317.896h1.496v5.507h-1.496zM263.372 317.896h1.496v5.507h-1.496zM187.652 290.233h3.74v2.125h-3.74zM194.509 290.233h3.74v2.125h-3.74zM201.366 290.233h3.74v2.125h-3.74zM208.224 290.233h3.74v2.125h-3.74zM215.081 290.233h3.74v2.125h-3.74zM187.652 294.703h3.74v2.125h-3.74zM194.509 294.703h3.74v2.125h-3.74zM201.366 294.703h3.74v2.125h-3.74zM208.224 294.703h3.74v2.125h-3.74zM215.081 294.703h3.74v2.125h-3.74zM187.652 299.173h3.74v2.125h-3.74zM194.509 299.173h3.74v2.125h-3.74zM201.366 299.173h3.74v2.125h-3.74zM208.224 299.173h3.74v2.125h-3.74zM215.081 299.173h3.74v2.125h-3.74zM187.652 303.644h3.74v2.125h-3.74zM194.509 303.644h3.74v2.125h-3.74zM201.366 303.644h3.74v2.125h-3.74zM208.224 303.644h3.74v2.125h-3.74zM215.081 303.644h3.74v2.125h-3.74zM201.366 308.114h3.74v2.125h-3.74zM185.782 261.666h13.091v1.497h-13.091zM204.691 261.666h8.104v1.497h-8.104zM217.886 261.666h8.104v1.497h-8.104zM185.782 265.337h13.091v1.497h-13.091zM204.691 265.337h8.104v1.497h-8.104zM217.886 265.337h8.104v1.497h-8.104zM185.782 269.008h13.091v1.497h-13.091zM204.691 269.008h8.104v1.497h-8.104zM217.886 269.008h8.104v1.497h-8.104zM185.782 272.679h13.091v1.497h-13.091zM204.691 272.679h8.104v1.497h-8.104zM217.886 272.679h8.104v1.497h-8.104zM185.782 276.35h13.091v1.497h-13.091zM204.691 276.35h8.104v1.497h-8.104zM217.886 276.35h8.104v1.497h-8.104zM250.614 293.293h-6.359v-15.446h-10.473v-1.497h11.969v15.446h4.863z"></path><path d="M242.946 277.099h-1.496v-5.625h-6.421v-1.496h7.917z"></path><path d="M237.866 270.726h1.496v3.186h-1.496zM235.029 280.008h5.61v2.043h-5.61zM235.029 283.8h5.61v2.043h-5.61zM235.029 287.592h5.61v2.043h-5.61zM235.029 291.384h5.61v2.043h-5.61zM235.029 295.177h5.61v2.043h-5.61zM235.029 298.969h5.61v2.043h-5.61zM253.938 279.99h4.364v1.468h-4.364zM253.938 283.486h4.364v1.468h-4.364zM253.938 286.983h4.364v1.468h-4.364zM253.938 290.479h4.364v1.468h-4.364zM253.938 293.976h4.364v1.468h-4.364zM282.614 277.579h29.091v1.497h-29.091zM282.614 281.694h29.091v1.497h-29.091zM282.614 285.811h29.091v1.497h-29.091zM282.614 289.926h29.091v1.497h-29.091z"></path><path d="M305.347 273.843h1.496v16.831h-1.496zM299.944 273.843h1.496v16.831h-1.496zM294.542 273.843h1.496v16.831h-1.496zM289.139 273.843h1.496v16.831h-1.496zM290.718 265.337h26.821v1.497h-26.821zM300.692 269.008h19.221v1.497h-19.221zM316.28 272.679h4.566v1.497h-4.566zM316.28 276.35h4.566v1.497h-4.566zM316.28 280.021h4.566v1.497h-4.566zM316.28 283.692h4.566v1.497h-4.566zM316.28 287.363h4.566v1.497h-4.566zM316.28 291.034h4.566v1.497h-4.566zM316.28 294.705h4.566v1.497h-4.566zM171.337 291.796h5.717v1.497h-5.717zM171.337 294.428h5.717v1.497h-5.717zM171.337 297.06h5.717v1.497h-5.717zM171.337 299.692h5.717v1.497h-5.717zM171.337 302.325h5.717v1.497h-5.717zM358.148 307.298h1.766v8.52h-1.766zM272.1 302.519h1.496v5.125H272.1zM326.646 302.519h1.496v8.26h-1.496z"></path><path d="M305.787 259.499h-1.602V148.481h-25.989v123.072h-1.602V146.879h29.193z"></path><path d="M280.807 178.682h20.767v.89h-20.767zM280.807 223.421h20.767v.89h-20.767z"></path><path d="M301.129 147.68h.89v111.819h-.89zM298.162 147.68h.89v111.819h-.89zM295.195 147.68h.89v111.819h-.89zM292.229 147.68h.89v111.819h-.89zM289.262 147.68h.89v111.819h-.89zM286.295 147.68h.89v111.819h-.89zM283.328 147.68h.89v115.035h-.89zM280.362 147.68h.89v123.873h-.89zM203.867 256.19h-1.602v-43.992h-25.989v69.907h-1.602v-71.509h29.193z"></path><path d="M178.887 242.399h20.767v.89h-20.767z"></path><path d="M199.209 211.397h.89v44.793h-.89zM196.242 211.397h.89v44.793h-.89zM193.276 211.397h.89v44.793h-.89zM190.309 211.397h.89v44.793h-.89zM187.342 211.397h.89v44.793h-.89zM184.375 211.397h.89v44.793h-.89zM181.408 211.397h.89v70.709h-.89zM178.442 211.397h.89v70.709h-.89zM601.525 326.831h-1.497v-16.295h-6.649v-3.098h-15.793v-94.815h21.805v1.496h-20.308v91.822h15.792v3.098h6.65zM598.643 187.097h18.675v1.496h-18.675z"></path><path d="M573.215 309.039v-3.098h13.809v1.497h-12.313v3.098h-6.649v16.295h-1.497v-17.792zM615.82 187.526h1.497V326.83h-1.497zM598.643 187.526h1.497v117.501h-1.497z"></path><path d="M628.746 279.588h-1.497v-24.486l-1.178-1.178v-3.51h-3.116v-3.417l-6.915-6.915 1.058-1.059 7.353 7.354v2.54h3.117v4.387l1.178 1.177z"></path><path d="M631.336 222.846v103.985h1.497V221.35h-4.087v-4.848h-5.999v4.848h-6.172v1.496h7.668v-4.849h3.006v4.849zM577.579 309.869h13.084v1.02h-13.084zM571.562 313.205h25.613v1.02h-25.613zM571.562 316.541h25.613v1.02h-25.613zM571.562 319.878h25.613v1.02h-25.613zM571.562 323.214h25.613v1.02h-25.613zM582.703 217.25h.831v87.22h-.831zM585.7 217.25h.831v87.22h-.831zM588.697 217.25h.831v87.22h-.831zM591.693 217.25h.831v87.22h-.831zM594.69 217.25h.831v87.22h-.831zM603.478 192.314h1.321v3.325h-1.321zM606.659 192.314h1.321v3.325h-1.321zM603.478 198.825h1.321v3.325h-1.321zM606.659 198.825h1.321v3.325h-1.321zM603.478 205.336h1.321v3.325h-1.321zM606.659 205.336h1.321v3.325h-1.321zM603.478 211.847h1.321v3.325h-1.321zM606.659 211.847h1.321v3.325h-1.321zM603.478 218.358h1.321v3.325h-1.321zM606.659 218.358h1.321v3.325h-1.321zM603.478 224.869h1.321v3.325h-1.321zM606.659 224.869h1.321v3.325h-1.321zM603.478 231.38h1.321v3.325h-1.321zM606.659 231.38h1.321v3.325h-1.321zM603.478 237.891h1.321v3.325h-1.321zM606.659 237.891h1.321v3.325h-1.321zM603.478 244.402h1.321v3.325h-1.321zM606.659 244.402h1.321v3.325h-1.321zM603.478 250.912h1.321v3.325h-1.321zM606.659 250.912h1.321v3.325h-1.321zM603.478 257.423h1.321v3.325h-1.321zM606.659 257.423h1.321v3.325h-1.321zM603.478 263.934h1.321v3.325h-1.321zM606.659 263.934h1.321v3.325h-1.321zM603.478 270.445h1.321v3.325h-1.321zM606.659 270.445h1.321v3.325h-1.321zM603.478 276.956h1.321v3.325h-1.321zM606.659 276.956h1.321v3.325h-1.321zM603.478 283.467h1.321v3.325h-1.321zM606.659 283.467h1.321v3.325h-1.321zM603.478 289.978h1.321v3.325h-1.321zM606.659 289.978h1.321v3.325h-1.321zM603.478 296.489h1.321v3.325h-1.321zM606.659 296.489h1.321v3.325h-1.321zM603.478 303h1.321v3.325h-1.321zM606.659 303h1.321v3.325h-1.321zM603.478 309.511h1.321v3.325h-1.321zM606.659 309.511h1.321v3.325h-1.321zM603.478 316.022h1.321v3.325h-1.321zM606.659 316.022h1.321v3.325h-1.321zM603.478 322.533h1.321v3.325h-1.321zM606.659 322.533h1.321v3.325h-1.321z"></path><path d="M619.039 225.284h10.101v1.247h-10.101zM619.039 228.193h10.101v1.247h-10.101zM619.039 231.103h10.101v1.247h-10.101zM619.039 234.012h10.101v1.247h-10.101zM619.039 236.921h10.101v1.247h-10.101zM625.296 239.83h3.844v1.247h-3.844zM625.296 242.739h3.844v1.247h-3.844zM619.525 252.886h1.049v2.121h-1.049zM619.525 262.055h1.049v2.121h-1.049zM619.525 266.64h1.049v2.121h-1.049zM619.525 271.224h1.049v2.121h-1.049zM619.525 280.393h1.049v2.121h-1.049zM619.525 284.978h1.049v2.121h-1.049zM619.525 289.562h1.049v2.121h-1.049zM619.525 298.731h1.049v2.121h-1.049zM619.525 303.316h1.049v2.121h-1.049zM619.525 307.9h1.049v2.121h-1.049zM619.525 317.069h1.049v2.121h-1.049zM619.525 321.654h1.049v2.121h-1.049zM622.341 252.886h1.049v2.121h-1.049zM622.341 257.471h1.049v2.121h-1.049zM622.341 262.055h1.049v2.121h-1.049zM622.341 271.224h1.049v2.121h-1.049zM622.341 275.809h1.049v2.121h-1.049zM622.341 280.393h1.049v2.121h-1.049zM622.341 289.562h1.049v2.121h-1.049zM622.341 294.147h1.049v2.121h-1.049zM622.341 298.731h1.049v2.121h-1.049zM622.341 307.9h1.049v2.121h-1.049zM622.341 312.485h1.049v2.121h-1.049zM622.341 317.069h1.049v2.121h-1.049zM260.455 274.692h-1.496v-21.149h-4.156v-50.945h-9.309v2.494h-5.042v-1.497h3.546v-2.493h12.301v50.944h4.156z"></path><path d="M245.716 207.859h2.756v1.143h-2.756zM245.716 210.976h2.756v1.143h-2.756zM245.716 214.093h2.756v1.143h-2.756zM245.716 217.21h2.756v1.143h-2.756zM245.716 223.443h2.756v1.143h-2.756zM245.716 226.56h2.756v1.143h-2.756zM245.716 229.677h2.756v1.143h-2.756zM245.716 232.794h2.756v1.143h-2.756zM245.716 239.028h2.756v1.143h-2.756zM245.716 242.145h2.756v1.143h-2.756zM245.716 245.262h2.756v1.143h-2.756zM245.716 248.379h2.756v1.143h-2.756zM250.71 207.859h2.756v1.143h-2.756zM250.71 210.976h2.756v1.143h-2.756zM250.71 214.093h2.756v1.143h-2.756zM250.71 217.21h2.756v1.143h-2.756zM250.71 223.443h2.756v1.143h-2.756zM250.71 226.56h2.756v1.143h-2.756zM250.71 229.677h2.756v1.143h-2.756zM250.71 232.794h2.756v1.143h-2.756zM250.71 239.028h2.756v1.143h-2.756zM250.71 242.145h2.756v1.143h-2.756zM250.71 245.262h2.756v1.143h-2.756zM250.71 248.379h2.756v1.143h-2.756zM245.3 254.872h12.329v1.143H245.3zM245.3 257.94h12.329v1.143H245.3zM245.3 261.008h12.329v1.143H245.3zM252.816 264.075h4.813v1.143h-4.813zM252.816 267.142h4.813v1.143h-4.813zM252.816 270.21h4.813v1.143h-4.813zM240.345 203.595h1.496v59.818h-1.496zM246.86 189.935h1.496v12.076h-1.496zM15.462 329.575h137.727v1.721H15.462zM247.692 329.575h139.033v1.721H247.692zM486.878 329.575h28.732v1.721h-28.732zM570.316 329.575h55.594v1.721h-55.594zM128.523 334.658h139.033v1.721H128.523zM367.708 334.658h139.033v1.721H367.708zM603.505 334.658h134.033v1.721H603.505zM635.676 343.248h98.569v1.721h-98.569zM402.139 343.248h93.641v1.721h-93.641zM521.308 348.331h139.033v1.721H521.308zM162.954 343.248h139.033v1.721H162.954zM282.122 348.331h139.033v1.721H282.122zM46.326 348.331h139.033v1.721H46.326zM15.462 367.599h722.077v1.721H15.462zM15.462 373.865h722.077v1.721H15.462zM38.076 361.371h74.227v1.721H38.076z"></path><path d="M41.04 362.667h1.721v5.227H41.04zM52.136 362.667h1.721v5.227h-1.721zM63.233 362.667h1.721v5.227h-1.721zM74.329 362.667h1.721v5.227h-1.721zM85.426 362.667h1.721v5.227h-1.721zM96.522 362.667h1.721v5.227h-1.721zM107.619 362.667h1.721v5.227h-1.721zM139.833 361.371h74.227v1.721h-74.227z"></path><path d="M142.797 362.667h1.721v5.227h-1.721zM153.893 362.667h1.721v5.227h-1.721zM164.99 362.667h1.721v5.227h-1.721zM176.087 362.667h1.721v5.227h-1.721zM187.183 362.667h1.721v5.227h-1.721zM198.28 362.667h1.721v5.227h-1.721zM209.376 362.667h1.721v5.227h-1.721zM241.591 361.371h74.227v1.721h-74.227z"></path><path d="M244.554 362.667h1.721v5.227h-1.721zM255.651 362.667h1.721v5.227h-1.721zM266.747 362.667h1.721v5.227h-1.721zM277.844 362.667h1.721v5.227h-1.721zM288.94 362.667h1.721v5.227h-1.721zM300.037 362.667h1.721v5.227h-1.721zM311.134 362.667h1.721v5.227h-1.721zM343.348 361.371h74.227v1.721h-74.227z"></path><path d="M346.311 362.667h1.721v5.227h-1.721zM357.408 362.667h1.721v5.227h-1.721zM368.505 362.667h1.721v5.227h-1.721zM379.601 362.667h1.721v5.227h-1.721zM390.698 362.667h1.721v5.227h-1.721zM401.794 362.667h1.721v5.227h-1.721zM412.891 362.667h1.721v5.227h-1.721zM445.105 361.371h74.227v1.721h-74.227z"></path><path d="M448.069 362.667h1.721v5.227h-1.721zM459.165 362.667h1.721v5.227h-1.721zM470.262 362.667h1.721v5.227h-1.721zM481.358 362.667h1.721v5.227h-1.721zM492.455 362.667h1.721v5.227h-1.721zM503.551 362.667h1.721v5.227h-1.721zM514.648 362.667h1.721v5.227h-1.721zM546.862 361.371h74.227v1.721h-74.227z"></path><path d="M549.826 362.667h1.721v5.227h-1.721zM560.923 362.667h1.721v5.227h-1.721zM572.019 362.667h1.721v5.227h-1.721zM583.116 362.667h1.721v5.227h-1.721zM594.212 362.667h1.721v5.227h-1.721zM605.309 362.667h1.721v5.227h-1.721zM616.405 362.667h1.721v5.227h-1.721zM648.62 361.371h74.227v1.721H648.62z"></path><path d="M134.904 326.831v-59.24h2.843v-1.422h-4.265v60.662zM161.438 326.831h1.421v-60.662h-4.264v1.422h2.843zM157.173 298.301h1.421v28.53h-1.421zM137.747 298.301h1.421v28.53h-1.421zM150.949 299.852h-5.555v9.496h5.555zm-1.422 8.074h-2.713v-6.653h2.713z"></path><path d="M158.595 294.784h-1.422v2.095h-18.005v-2.095h-1.421v3.5170000000000003h20.848v-1.422zM157.173 281.099v12.263h-18.005v-12.263h-1.421v13.685h20.848v-13.685zM137.747 281.099h20.848v-3.5549999999999997h-1.422v2.134h-18.005v-2.134h-1.421v2.134zM155.077 235.45v24.447a6.8 6.8 0 0 1 1.421 1.043v-25.49zM141.264 259.897V235.45h-1.421v25.49a6.8 6.8 0 0 1 1.421-1.043M150.561 231.698a.71.71 0 0 1-.711.711h1.866a.71.71 0 0 1-.711-.711v-.711h-.444z"></path><path d="M141.264 235.45h16.712v-4.462h-2.193v.711a.71.71 0 0 1-.711.711h1.482v1.619h-16.77v-1.619h1.482a.71.71 0 0 1-.711-.711v-.711h-2.193v4.462h2.902"></path><path d="M145.781 231.698v-.711h-.444v.711a.71.71 0 0 1-.711.711h1.866a.71.71 0 0 1-.711-.711M138.715 264.217a.71.71 0 0 1-.711.711h-.191l-.003.023a7 7 0 0 0-.063.894v11.699h20.846999999999998v-11.699c0-.307-.026-.603-.063-.894l-.003-.023h-.191a.71.71 0 0 1-.711-.711v-1.872a6.857 6.857 0 0 0-2.549-2.448c-.789-.433-1.636-.698-2.467-.756-1.233-.086-2.118-1.723-2.573-2.929h-1.504c.406 1.243 1.613 4.182 3.978 4.346 2.242.156 4.662 2.221 4.662 5.285v10.277999999999999h-18.005000000000003v-10.277999999999999c0-3.064 2.42-5.129 4.662-5.285 2.364-.164 3.571-3.104 3.978-4.346h-1.504c-.455 1.206-1.34 2.843-2.573 2.929-.831.058-1.678.323-2.467.756a6.807 6.807 0 0 0-2.549 2.448z"></path><path d="M145.343 265.124v6.324h5.656l-.001-6.351c-.026-.68-.589-2.443-2.85-2.443-2.275 0-2.796 1.776-2.805 2.47m4.234.023v4.879h-2.813v-4.893c.002-.177.079-1.058 1.384-1.058 1.239.001 1.408.803 1.429 1.072M157.626 264.217a.71.71 0 0 0 .711.711h3.3579999999999997a.71.71 0 0 0 .711-.711v-7.011a.7.7 0 0 0-.253-.54l.071.422a.711.711 0 0 1-.702.828h-.538v5.59h-1.937v-5.59h-.538a.71.71 0 0 1-.701-.828l.071-.422a.7.7 0 0 0-.253.54v7.011"></path><path d="M157.967 257.665a.71.71 0 0 0 .543.251h3.013a.713.713 0 0 0 .702-.828l-.071-.422-1.435-8.58a.71.71 0 0 0-1.402 0l-1.436 8.58-.071.422a.7.7 0 0 0 .157.577m2.049-5.155.667 3.985h-1.334zM134.646 264.927h3.3579999999999997a.71.71 0 0 0 .711-.711v-7.011a.71.71 0 0 0-.253-.54l.071.422a.711.711 0 0 1-.701.828h-.538v5.59h-1.936v-5.59h-.538a.71.71 0 0 1-.701-.828l.071-.422a.7.7 0 0 0-.253.54v7.011a.71.71 0 0 0 .709.711"></path><path d="M134.276 257.665a.71.71 0 0 0 .543.251h3.0120000000000005a.708.708 0 0 0 .701-.828l-.071-.422-1.435-8.58a.71.71 0 0 0-1.402 0l-1.436 8.58-.071.422a.72.72 0 0 0 .159.577m2.05-5.155.666 3.985h-1.334zM151.627 255.501c0-1.606-1.55-2.913-3.456-2.913-1.907 0-3.458 1.307-3.458 2.913a.71.71 0 0 0 .711.711h5.491999999999999a.71.71 0 0 0 .711-.711m-5.237-.71c.351-.461 1.026-.782 1.782-.782.755 0 1.429.32 1.78.782zM148.171 239.036a6.01 6.01 0 0 0-6.003 6.004 6.01 6.01 0 0 0 6.003 6.003 6.01 6.01 0 0 0 6.004-6.003 6.01 6.01 0 0 0-6.004-6.004m0 10.586a4.587 4.587 0 0 1-4.582-4.582 4.587 4.587 0 0 1 4.582-4.582 4.587 4.587 0 0 1 4.582 4.582 4.59 4.59 0 0 1-4.582 4.582M141.268 232.409h3.358a.71.71 0 0 0 .711-.711v-7.0120000000000005a.7.7 0 0 0-.253-.54l.071.422a.709.709 0 0 1-.701.828h-.538v5.59h-1.937v-5.59h-.538a.71.71 0 0 1-.702-.828l.071-.422a.7.7 0 0 0-.253.54v7.0120000000000005a.71.71 0 0 0 .711.711"></path><path d="M140.898 225.146a.71.71 0 0 0 .543.252h3.013a.71.71 0 0 0 .701-.828l-.071-.422-.798-4.77-.637-3.809a.7.7 0 0 0-.07-.205.71.71 0 0 0-1.332.205l-1.436 8.58-.071.422a.7.7 0 0 0 .158.575m2.716-1.17h-1.334l.667-3.985zM150.561 231.698v-7.0120000000000005c0-.217-.1-.41-.253-.54l.071.423a.707.707 0 0 1-.7.828h-.538v5.59h-1.937v-5.59h-.538a.707.707 0 0 1-.7-.828l.071-.422a.7.7 0 0 0-.253.54v7.0120000000000005a.71.71 0 0 0 .711.711h3.358a.71.71 0 0 0 .708-.712"></path><path d="M146.122 225.146a.71.71 0 0 0 .542.252h3.013a.71.71 0 0 0 .7-.828l-.071-.423-1.435-8.579a.71.71 0 0 0-1.402 0l-1.436 8.579-.071.422a.72.72 0 0 0 .16.577m2.049-5.155.666 3.985h-1.333zM155.443 225.146a.71.71 0 0 1-.543.252h-.538v5.59h-1.937v-5.59h-.538a.712.712 0 0 1-.701-.828l.071-.422a.7.7 0 0 0-.253.54v7.0120000000000005a.71.71 0 0 0 .711.711h3.358a.71.71 0 0 0 .711-.711v-7.0120000000000005a.71.71 0 0 0-.253-.54l.071.422a.71.71 0 0 1-.159.576"></path><path d="m152.056 219.38-.798 4.767-.071.422a.71.71 0 0 0 .701.828h3.013a.71.71 0 0 0 .701-.828l-.071-.422-1.435-8.579a.71.71 0 0 0-1.401 0zm2.005 4.596h-1.334l.668-3.985zM148.171 194.72l.917.666 3.826 2.78-1.812-5.576 4.742-3.446h-5.862l-1.811-5.575-1.812 5.575h-5.862l4.743 3.446-1.812 5.575 3.825-2.779zm-3.3-4.154h2.52l.779-2.397.779 2.397h2.521l-2.04 1.482.779 2.397-2.039-1.481-2.039 1.482.779-2.397zM663.83 226.212a2.64 2.64 0 0 0-2.638-2.638 2.64 2.64 0 0 0-2.638 2.638v20.951h5.277zm-1.279 19.671h-2.718v-19.671c0-.749.61-1.359 1.359-1.359s1.359.61 1.359 1.359zM657.292 226.212a2.64 2.64 0 0 0-2.638-2.638 2.64 2.64 0 0 0-2.638 2.638v20.951h5.277zm-1.28 19.671h-2.718v-19.671c0-.749.61-1.359 1.359-1.359s1.359.61 1.359 1.359zM711.616 226.212a2.64 2.64 0 0 0-2.639-2.638 2.64 2.64 0 0 0-2.638 2.638v20.951h5.277zm-1.279 19.671h-2.718v-19.671c0-.749.61-1.359 1.359-1.359.75 0 1.359.61 1.359 1.359zM718.155 226.212a2.64 2.64 0 0 0-2.638-2.638 2.64 2.64 0 0 0-2.638 2.638v20.951h5.277zm-1.28 19.671h-2.718v-19.671c0-.749.61-1.359 1.359-1.359.75 0 1.359.61 1.359 1.359zM685.067 273.592c-4.466 0-8.099 3.633-8.099 8.099s3.633 8.099 8.099 8.099 8.099-3.633 8.099-8.099-3.633-8.099-8.099-8.099m0 14.919a6.827 6.827 0 0 1-6.82-6.82 6.827 6.827 0 0 1 6.82-6.82 6.827 6.827 0 0 1 6.82 6.82c0 3.761-3.06 6.82-6.82 6.82M715.832 279.522a2.64 2.64 0 0 0-2.638 2.638v7.314h5.276v-7.314a2.64 2.64 0 0 0-2.638-2.638m1.359 8.673h-2.718v-6.035c0-.749.61-1.359 1.359-1.359s1.359.61 1.359 1.359zM708.661 279.522a2.64 2.64 0 0 0-2.638 2.638v7.314h5.276v-7.314a2.64 2.64 0 0 0-2.638-2.638m1.359 8.673h-2.718v-6.035c0-.749.61-1.359 1.359-1.359s1.359.61 1.359 1.359zM714.918 276.718c0-1.473-1.198-2.671-2.671-2.671s-2.671 1.198-2.671 2.671 1.198 2.671 2.671 2.671 2.671-1.198 2.671-2.671m-2.671 1.392a1.393 1.393 0 1 1 1.392-1.392c0 .768-.625 1.392-1.392 1.392M658.834 282.16v7.314h5.277v-7.314a2.64 2.64 0 0 0-2.638-2.638 2.64 2.64 0 0 0-2.639 2.638m1.279 0c0-.749.61-1.359 1.359-1.359s1.359.61 1.359 1.359v6.035h-2.718zM656.94 282.16a2.64 2.64 0 0 0-2.638-2.638 2.64 2.64 0 0 0-2.638 2.638v7.314h5.276zm-1.28 6.035h-2.718v-6.035c0-.749.61-1.359 1.359-1.359s1.359.61 1.359 1.359zM657.887 279.389a2.674 2.674 0 0 0 2.671-2.671 2.674 2.674 0 0 0-2.671-2.671 2.674 2.674 0 0 0-2.671 2.671 2.674 2.674 0 0 0 2.671 2.671m0-4.063a1.393 1.393 0 0 1 0 2.784 1.394 1.394 0 0 1-1.392-1.392c0-.767.624-1.392 1.392-1.392"></path><path d="M727.979 226.665v-3.763h-1.012l-2.932-5.034v-2.283h1.272v-4.195h-2.144v-2.519h-1.791v-3.411l-.002-.019a.7.7 0 0 0-.018-.132l-.013-.042a1 1 0 0 0-.045-.106q-.005-.013-.011-.025l-1.875-3.161a.64.64 0 0 0-1.1 0l-1.875 3.161-.01.023a.6.6 0 0 0-.046.109l-.013.04a.7.7 0 0 0-.019.134l-.002.017v3.411H701.33v2.519h-2.144v4.195h1.272v2.159l-3.004 5.157h-1.012v3.763h.74v20.672h-.74v1.302H673.69v-1.302h-.74v-20.672h.74V222.9h-1.012l-2.968-5.095v-2.221h1.272v-4.195h-2.144v-2.519h-15.014v-3.344q.004-.031.006-.064c0-.032-.011-.061-.016-.092q-.004-.028-.009-.055a.6.6 0 0 0-.071-.175q-.01-.019-.02-.036c-.008-.012-.012-.026-.02-.037l-1.834-3.091a.64.64 0 0 0-1.1 0l-1.875 3.161-.01.023a1 1 0 0 0-.046.108l-.013.04a.6.6 0 0 0-.019.135l-.002.016v3.411h-1.791v2.519h-2.143v4.195h1.272v2.221l-2.968 5.095h-1.012v3.763h.74v20.672h-.74v3.882h.74v16.309h-.74v3.882h.74v18.8h-.74v3.72h.74v5.896h-.74v3.478h.74v26.819h1.279v-26.819h5.201v26.819h1.357v-8.742h2.789v8.742h1.279v-8.742h6.245v8.742h1.279v-8.742h2.789v8.742h1.358v-26.819h5.201v26.819h1.406v-8.742h5.282v8.742h1.279v-8.742h4.788v8.742h1.279v-8.742h4.789v8.742h1.279v-8.742h5.282v8.742h1.406v-26.819h5.201v26.819h1.358v-8.742h2.789v8.742h1.279v-8.742h6.245v8.742h1.279v-8.742h2.789v8.742h1.358v-26.819h5.201v26.819h1.279v-26.819h.74v-3.478h-.74v-5.896h.74v-3.72h-.74V271.41h.74v-3.882h-.74v-16.309h.74v-3.882h-.74v-20.672zm-1.373-2.484h.094v1.205h-6.68v-1.205h6.586m-3.879 43.272v-8.247h1.266v8.247zm-3.247 21.121v1.637h-14.538v-17.04h14.538v15.403m1.496 4.078h-77.543v-1.162h83.265v1.162h-5.722m2.773 1.279v5.896h-1.493v-5.896zm-2.773 0v5.896h-2.846v-5.896zm-4.125 0v5.896h-1.493v-5.896zm-2.772 0v5.896h-2.846v-5.896zm-4.125 0v5.896h-1.493v-5.896zm-2.772 0v5.896h-2.846v-5.896zm-4.126 0v5.896h-1.493v-5.896zm-2.772 0v5.896h-2.845v-5.896zm-4.125 0v5.896h-1.493v-5.896zm-2.772 0v5.896h-2.846v-5.896zm-4.125 0v5.896h-1.493v-5.896zm-2.772 0v5.896h-2.846v-5.896zm-4.125 0v5.896h-1.493v-5.896zm-2.773 0v5.896h-2.846v-5.896zm-4.125 0v5.896h-1.493v-5.896zm-2.772 0v5.896h-2.846v-5.896zm-4.125 0v5.896h-1.493v-5.896zm-2.772 0v5.896h-2.846v-5.896zm-4.125 0v5.896h-1.493v-5.896zm-2.773 0v5.896h-2.846v-5.896zm-4.125 0v5.896h-1.493v-5.896zm-2.772 0v5.896h-2.845v-5.896zm-4.125 0v5.896h-1.493v-5.896zm2.776-6.427v-14.332h14.538v17.04h-14.538v-2.708m-4.513-20.051v-8.247h1.265v8.247zm-2.707-18.837h6.68v1.324h-6.68zm7.959 2.603v-1.301h13.059v1.301h.74v.566h-14.538v-.566zm46.329-2.603h6.68v1.324h-6.681v-1.324zm18.503 16.808v-4.381h1.344v-3.933h-1.295q.063-.456.2-.866c.276-.829.742-1.516 1.206-2.045a7.5 7.5 0 0 1 1.243-1.135h.558v14.463h-.74v1.523h-1.172v-3.627zm-6.677 0v-4.381h1.343v-3.933h-1.295q.063-.456.2-.866c.275-.828.742-1.515 1.205-2.044a7.5 7.5 0 0 1 1.244-1.135h.006c.234.165.727.546 1.23 1.115.469.531.943 1.227 1.22 2.07q.135.408.197.86h-1.296v3.933h1.343v4.381h-1.343v3.627h-2.712v-3.627zm.064-7.035v1.375h-1.407v-1.375zm0 8.314v2.348h-1.407v-2.348zm5.27-6.939v-1.375h1.408v1.375zm0 6.939h1.408v2.348h-1.408zm.703-11.668a7.8 7.8 0 0 0-1.389-1.971h2.778a7.8 7.8 0 0 0-1.389 1.971m-6.677 0a7.8 7.8 0 0 0-1.389-1.971h2.778a7.8 7.8 0 0 0-1.389 1.971m-3.335-1.971c.234.165.727.546 1.23 1.115.47.531.944 1.227 1.221 2.071q.135.408.197.86h-1.296v3.933h1.343v4.381h-1.343v3.627h-1.244v-1.523h-.74v-14.463zm-1.911 33.976v3.171h-5.201V271.41h5.201zm-37.191 1.582V271.41h5.201v18.801h-5.201zm-4.606-23.198v-4.381h1.343v-3.933h-1.295q.063-.456.2-.866c.275-.828.742-1.515 1.205-2.044a7.6 7.6 0 0 1 1.243-1.135h.63v14.463h-.74v1.523h-1.244v-3.627zm-6.677 0v-4.381h1.343v-3.933h-1.295q.063-.456.2-.866c.276-.828.742-1.516 1.205-2.044a7.5 7.5 0 0 1 1.243-1.135h.006c.234.165.727.546 1.23 1.115.47.532.944 1.227 1.221 2.071q.134.408.197.86h-1.296v3.933h1.343v4.381h-1.343v3.627h-2.711v-3.627h-1.343zm-4.534 2.104v-14.463h.559c.234.165.727.546 1.23 1.115.47.531.944 1.227 1.221 2.071q.134.408.197.86h-1.296v3.933h1.343v4.381h-1.343v3.627h-1.172v-1.523h-.739zm9.868-7.764v-1.375h1.408v1.375zm.703-4.729a7.8 7.8 0 0 0-1.389-1.971h2.778a7.8 7.8 0 0 0-1.389 1.971m-7.381 4.729v-1.375h1.408v1.375zm.704-4.729a7.8 7.8 0 0 0-1.389-1.971h2.778a7.8 7.8 0 0 0-1.389 1.971m-.704 11.668h1.408v2.348h-1.408zm6.678 0h1.408v2.348h-1.408zm7.917.75v-8.247h1.266v8.247zm3.972 2.678h-6.68v-1.324h6.68zm.54 18.491v-15.451h24.232v17.039h-24.232zm0-16.73v-.482h.74v-1.08h22.752v1.08h.74v.482zm4.955-13.503v1.375h-1.407v-1.375zm0 8.314v2.348h-1.407v-2.348zm7.865-8.314v1.375h-1.407v-1.375zm0 8.314v2.348h-1.407v-2.348zm7.864-8.314v1.375h-1.408v-1.375zm0 8.314v2.348h-1.408v-2.348zm10.767 3.428h-6.68v-1.324h6.68zm-3.973-2.678v-8.247h1.266v8.247zm-1.967-16.234h5.201v16.234h-.688v-9.526h-3.824v9.526h-.688v-16.234zm-1.28 16.309h-.74v1.523h-1.528v-3.627h-1.343v-4.381h1.343v-3.933h-1.295q.063-.456.2-.866c.276-.828.742-1.515 1.205-2.044a7.6 7.6 0 0 1 1.243-1.135h.914zm-4.251-12.493a7.8 7.8 0 0 0-1.389-1.971h2.778a7.8 7.8 0 0 0-1.389 1.971m-3.335-1.971c.234.165.727.546 1.23 1.115.47.532.944 1.227 1.221 2.071q.135.408.197.86h-1.296v3.933h1.343v4.381h-1.343v3.627h-3.899v-3.627h-1.343v-4.381h1.343v-3.933h-1.295q.063-.456.2-.866c.276-.828.742-1.516 1.206-2.045a7.6 7.6 0 0 1 1.243-1.135zm-4.529 1.971a7.8 7.8 0 0 0-1.389-1.971h2.778a7.8 7.8 0 0 0-1.389 1.971m-3.335-1.971c.234.165.727.546 1.23 1.115.47.531.944 1.227 1.221 2.07q.135.408.197.86h-1.296v3.933h1.343v4.381h-1.343v3.627h-3.899v-3.627h-1.343v-4.381h1.343v-3.933h-1.295q.063-.455.2-.867c.275-.828.742-1.515 1.205-2.044a7.6 7.6 0 0 1 1.243-1.135zm-4.53 1.971a7.8 7.8 0 0 0-1.389-1.971h2.778a7.8 7.8 0 0 0-1.389 1.971m-3.335-1.971c.234.165.727.546 1.23 1.115.47.532.944 1.227 1.221 2.071q.134.408.197.86h-1.296v3.933h1.343v4.381h-1.343v3.627h-1.528v-1.523h-.74v-14.463zm-1.456-3.124h-6.68v-1.324h6.68zm-3.979 1.279h3.24v16.234h-.688v-9.526h-3.824v9.526h-.688v-16.234zm-24.998 17.588h6.68v1.324h-6.68zm7.959 2.603v-1.08h13.059v1.08h.74v.482h-14.538v-.482zm68.087.482h-14.538v-.482h.74v-1.08h13.06v1.08h.74v.482zm7.219-3.085v1.324h-6.68v-1.324zm-7.219-17.022h-14.538v-.566h.74v-1.301h13.059v1.301h.74zm.539-3.169h6.68v1.324h-6.68zm5.468-25.714h-4.254l2.127-3.652zm-6.629-19.346.751 1.267h-1.503zm1.235 2.546v2.769h-2.47v-2.769zm-17.484 4.048h19.275v1.24h-19.275zm-2.144 2.519h23.564v1.636h-23.563zm22.291 2.916v2.16l-3.004 5.157h-1.012v3.763h.74v20.672h-.74v1.302h-13.059v-1.302h-.74v-20.672h.74v-3.763h-1.012l-2.932-5.034v-2.283zm-21.694 3.665 2.127 3.652h-4.254zm3.24 4.931h.1v1.205h-6.68v-1.205h6.58m-.64 2.484v20.672h-5.201v-20.672zm-29.971 24.554v-1.301h22.752v1.301h.74v.566h-24.232v-.566zm-2.019-3.882h-5.201v-20.672h5.201zm.646-23.156h.094v1.205h-6.68v-1.205h6.586m-1.12-1.279h-4.254l2.127-3.652zm-19.887-19.346.752 1.267h-1.503zm1.235 2.546v2.769h-2.47v-2.769zm-4.261 4.048h19.276v1.24h-19.276zm-2.144 2.519h23.562v1.636H646.14zm22.291 2.916v2.221l-2.968 5.095h-1.012v3.763h.74v20.672h-.74v1.302h-13.059v-1.302h-.74v-20.672h.74v-3.763h-1.012l-2.968-5.095v-2.221zm-21.658 3.665 2.127 3.652h-4.254zm3.24 4.931h.1v1.205h-6.68v-1.205h6.58m-.64 2.484v20.672h-5.201v-20.672zm-1.96 24.554h1.961v16.234h-.688v-9.526h-3.824v9.526h-.688v-16.234zm-3.24 36.285V271.41h5.201v18.8h-5.201v-2.706m.932 6.427v5.896h-.932v-5.896zm9.712 26.171c.182-4.34 2.148-8.034 3.105-9.583.956 1.55 2.923 5.243 3.104 9.583zm7.494 0c-.232-6.143-3.722-10.918-3.876-11.126a.64.64 0 0 0-1.028 0c-.154.207-3.643 4.982-3.876 11.126h-2.654c.298-2.52 1.701-11.316 7.044-15.033 5.319 3.705 6.739 12.51 7.042 15.033zm2.88-5.493c-1.061-3.8-3.089-8.413-6.926-10.849a.64.64 0 0 0-.686 0c-3.834 2.435-5.864 7.069-6.926 10.878v-11.334h14.538zm14.472 5.493c.329-4.696 4.17-8.264 5.403-9.294 1.234 1.03 5.074 4.599 5.403 9.294zm12.091 0c-.373-6.213-6.06-10.446-6.31-10.629a.64.64 0 0 0-.756 0c-.25.183-5.937 4.415-6.31 10.629h-5.06c.499-2.58 2.836-11.466 11.748-15.112 9.002 3.68 11.273 12.515 11.754 15.112zm5.427-3.46c-1.412-4.051-4.659-10.093-11.881-12.937a.64.64 0 0 0-.469 0c-7.248 2.854-10.479 8.81-11.881 12.852v-13.253h24.232zm11.924 3.46c.182-4.341 2.148-8.034 3.104-9.583.956 1.55 2.923 5.243 3.105 9.583zm7.494 0c-.232-6.143-3.722-10.918-3.876-11.126-.241-.326-.786-.326-1.028 0-.153.207-3.643 4.982-3.876 11.126h-2.654c.298-2.52 1.701-11.316 7.044-15.033 5.32 3.705 6.74 12.51 7.043 15.033zm-4.046-16.341a.64.64 0 0 0-.686 0c-3.834 2.435-5.864 7.069-6.926 10.878v-11.334h14.538v11.304c-1.061-3.8-3.089-8.412-6.926-10.848m8.205-1.736h-77.324v-.919h83.271v.919zm5.201-2.198h-.932v-5.896h.932zm0-11.962v2.346h-5.201V271.41h5.201zm0-20.412h-.688v-9.526h-3.824v9.526h-.688v-16.234h5.201v16.234zm0-20.116h-5.201v-20.672h5.201z"></path><path d="M116.669 254.111h1.189v3.378h-1.189zM27.756 254.111h1.189v3.378h-1.189zM28.945 254.111h26.487v-1.189H26.826v-1.014h26.823v-1.189H25.637v3.392h2.119zM91.965 251.908h26.823v1.014H90.182v1.189h29.794999999999998v-3.392H91.965zM122.564 271.479l.609 51.176h1.189l-.609-51.176zM118.63 322.655l.609-51.176h-1.189l-.61 51.176zM123.173 322.655h-7.745v4.147h10.948v-4.147h-3.203zm2.013 1.189v1.769h-8.57v-1.769h8.57zM119.239 271.479h6.33v-2.136h-1.189v.947h-6.957v-.947h-1.189v2.136h1.816zM99.392 322.655l.609-51.176h-1.189l-.609 51.176zM103.326 271.479l.609 51.176h1.189l-.609-51.176zM103.935 322.655H96.19v4.147h10.948v-4.147h-3.203zm2.013 1.189v1.769h-8.57v-1.769h8.57z" style="stroke: rgb(0, 0, 0); stroke-width: 0.25; stroke-miterlimit: 10;"></path><path d="M105.142 269.343v.947h-6.957v-.947h-1.189v2.136h9.335v-2.136zM84.088 271.479l.61 51.176h1.189l-.61-51.176zM80.154 322.655l.61-51.176h-1.19l-.609 51.176zM84.698 322.655h-7.7459999999999996v4.147h10.947v-4.147h-3.2009999999999996zm2.013 1.189v1.769h-8.57v-1.769h8.57z" style="stroke: rgb(0, 0, 0); stroke-width: 0.25; stroke-miterlimit: 10;"></path><path d="M85.904 269.343v.947h-6.957v-.947h-1.189v2.136h9.335v-2.136zM60.916 322.655l.61-51.176h-1.189l-.61 51.176zM64.851 271.479l.609 51.176h1.189l-.609-51.176zM65.46 322.655h-7.7459999999999996v4.147h10.947v-4.147H65.46zm2.013 1.189v1.769h-8.57v-1.769h8.57z" style="stroke: rgb(0, 0, 0); stroke-width: 0.25; stroke-miterlimit: 10;"></path><path d="M66.666 269.343v.947h-6.957v-.947h-1.188v2.136h9.334v-2.136zM41.678 322.655l.61-51.176h-1.189l-.61 51.176zM45.613 271.479l.609 51.176h1.189l-.609-51.176zM46.222 322.655h-7.7459999999999996v4.147h10.947v-4.147h-3.201zm2.013 1.189v1.769h-8.569v-1.769h8.568999999999999z" style="stroke: rgb(0, 0, 0); stroke-width: 0.25; stroke-miterlimit: 10;"></path><path d="M47.429 269.343v.947h-6.957v-.947h-1.189v2.136h9.334v-2.136zM26.375 271.479l.609 51.176h1.19l-.61-51.176zM22.44 322.655l.61-51.176h-1.189l-.61 51.176zM26.984 322.655h-7.7459999999999996v4.147h10.947v-4.147h-3.2009999999999996zm2.013 1.189v1.769h-8.569v-1.769h8.568999999999999z" style="stroke: rgb(0, 0, 0); stroke-width: 0.25; stroke-miterlimit: 10;"></path><path d="M28.191 269.343v.947h-6.957v-.947h-1.189v2.136h9.335v-2.136zM117.423 269.343h10.690000000000001v-4.607h-1.515v1.189h.326v2.229H18.69v-2.229h.326v-1.189h-1.515v4.607h98.73299999999999z" style="stroke: rgb(0, 0, 0); stroke-width: 0.25; stroke-miterlimit: 10;"></path><path d="M19.016 265.925h3.977v-1.189h-2.788v-3.254h-1.189v3.254zM125.409 261.482v3.254h-2.788v1.189h3.977v-4.443zM111.153 264.736h3.584v1.189h-3.584zM76.749 264.736h3.584v1.189h-3.584zM42.345 264.736h3.584v1.189h-3.584zM53.813 264.736h3.584v1.189h-3.584zM30.877 264.736h3.584v1.189h-3.584zM88.217 264.736h3.584v1.189h-3.584zM99.685 264.736h3.584v1.189h-3.584zM65.281 264.736h3.584v1.189h-3.584z" style="stroke: rgb(0, 0, 0); stroke-width: 0.25; stroke-miterlimit: 10;"></path><path d="M68.865 265.925h1.932v-1.189h-.743v-3.254h-1.189v3.254zM74.817 264.736v1.189h1.932v-4.443H75.56v3.254z" style="stroke: rgb(0, 0, 0); stroke-width: 0.25; stroke-miterlimit: 10;"></path><path d="M70.797 265.925h4.02v-4.443h-1.189v3.254h-1.643v-3.254h-1.188v3.254zM24.925 264.736h-.743v-3.254h-1.189v4.443h1.932zM28.945 264.736v1.189h1.932v-4.443h-1.189v3.254zM24.925 265.925h4.02v-4.443h-1.189v3.254h-1.642v-3.254h-1.189v3.254zM34.461 265.925h1.932v-1.189h-.743v-3.254h-1.189v3.254zM40.413 264.736v1.189h1.932v-4.443h-1.189v3.254z" style="stroke: rgb(0, 0, 0); stroke-width: 0.25; stroke-miterlimit: 10;"></path><path d="M36.393 265.925h4.02v-4.443h-1.189v3.254h-1.643v-3.254h-1.188v3.254zM45.929 265.925h1.932v-1.189h-.743v-3.254h-1.189v3.254zM51.881 264.736v1.189h1.932v-4.443h-1.189v3.254z" style="stroke: rgb(0, 0, 0); stroke-width: 0.25; stroke-miterlimit: 10;"></path><path d="M47.861 265.925h4.02v-4.443h-1.189v3.254H49.05v-3.254h-1.189v3.254zM57.397 265.925h1.932v-1.189h-.743v-3.254h-1.189v3.254zM63.349 264.736v1.189h1.932v-4.443h-1.189v3.254z" style="stroke: rgb(0, 0, 0); stroke-width: 0.25; stroke-miterlimit: 10;"></path><path d="M59.329 265.925h4.02v-4.443H62.16v3.254h-1.642v-3.254h-1.189v3.254zM80.333 265.925h1.932v-1.189h-.743v-3.254h-1.189v3.254zM86.285 264.736v1.189h1.932v-4.443h-1.189v3.254zM82.265 265.925h4.02v-4.443h-1.189v3.254h-1.642v-3.254h-1.189v3.254zM91.801 265.925h1.931v-1.189h-.742v-3.254h-1.189v3.254zM97.753 264.736v1.189h1.932v-4.443h-1.189v3.254zM93.732 265.925h4.021v-4.443h-1.189v3.254h-1.643v-3.254h-1.189v3.254zM103.269 265.925h1.931v-1.189h-.743v-3.254h-1.188v3.254zM109.221 264.736v1.189h1.932v-4.443h-1.189v3.254zM105.2 265.925h4.021v-4.443h-1.189v3.254h-1.643v-3.254H105.2v3.254zM114.737 265.925h1.932v-1.189h-.743v-3.254h-1.189v3.254zM120.689 264.736v1.189h1.932v-4.443h-1.189v3.254zM116.669 265.925h4.02v-4.443H119.5v3.254h-1.643v-3.254h-1.188v3.254z" style="stroke: rgb(0, 0, 0); stroke-width: 0.25; stroke-miterlimit: 10;"></path><path d="M20.205 261.482h107.441v-3.993H90.182v1.189h36.275v1.615H19.156v-1.615h36.276v-1.189H17.967v3.993h1.049z" style="stroke: rgb(0, 0, 0); stroke-width: 0.25; stroke-miterlimit: 10;"></path><path d="M90.182 252.922v-1.014h-1.189v5.581H56.621v-5.581h-1.189v6.7700000000000005h34.75v-4.567zM53.649 251.908h38.316v-3.642h-8.308v1.189h7.119v1.264H54.838v-1.264h7.119v-1.189h-8.308v2.453z" style="stroke: rgb(0, 0, 0); stroke-width: 0.25; stroke-miterlimit: 10;"></path><path d="M68.325 248.266h1.298v1.189h-1.298zM75.991 248.266h1.298v1.189h-1.298z" style="stroke: rgb(0, 0, 0); stroke-width: 0.25; stroke-miterlimit: 10;"></path><path d="M69.623 249.455h6.368v-10.843H74.49v1.188h.312v8.466h-3.99V239.8h.312v-1.188h-1.501v9.654zM77.289 249.455h6.368v-8.939h-6.368v8.939zm1.189-7.75h3.991v6.561h-3.991zM61.957 249.455h6.368v-8.939h-6.368v8.939zm1.189-7.75h3.99v6.561h-3.99z" style="stroke: rgb(0, 0, 0); stroke-width: 0.25; stroke-miterlimit: 10;"></path><path d="M71.124 239.8h3.366v-9.491h-3.366v9.491zm1.189-8.302h.988v7.113h-.988z" style="stroke: rgb(0, 0, 0); stroke-width: 0.25; stroke-miterlimit: 10;"></path><path d="m474.663 290.448-.209-.489-.179-.158.075-.085-.568-1.327c-5.213-3.261-12.146-5.254-19.75-5.254-7.605 0-14.537 1.993-19.75 5.254l-.568 1.327.075.085-.179.158-.21.49a.7.7 0 0 1-.119.279l-.033.077c5.107-3.82 12.529-6.23 20.784-6.23s15.678 2.411 20.784 6.231l-.033-.077a.7.7 0 0 1-.12-.281M429.5 271.216V265.9h.677v-1.329h-2.006v7.114l.233-.469zM441.065 272.545h5.228v-.722h1.329v.722h8.103v-.722h1.329v.722h8.102v-.722h1.329v.722h.513l-.569-1.329h-24.795zM478.563 265.9v5.316h1.096l.233.469v-7.114h-2.006v1.329zM475.531 259.893h1.026v4.678h-2.459v1.329h3.788v-7.335999999999999h-2.863l.162.427zM447.829 258.564h3.649v1.329h-3.649zM456.585 258.564h3.649v1.329h-3.649z"></path><path d="M433.965 265.9v-1.329h-2.459v-4.678h1.026l.346-.902q.082-.213.162-.427h-2.863v7.335999999999999zM439.072 264.571h3.649v1.329h-3.649zM447.829 264.571h3.649v1.329h-3.649zM465.342 264.571h3.648v1.329h-3.648zM456.585 264.571h3.649v1.329h-3.649z"></path><path d="M439.072 264.571v-4.678h-1.328v4.678h-2.45v-4.678h-1.329v6.007h5.107zM447.829 259.893v-1.329h-3.415c-.152.53-.24.83-.247.852l-.141.476h-1.303v6.007h5.107v-6.005999999999999zm-1.329 4.678h-2.45v-4.678h2.45zM456.585 259.893v-1.329h-5.108v7.335999999999999h5.108v-6.007m-1.329 4.678h-2.45v-4.678h2.45zM465.342 259.893h-1.304l-.141-.476c-.007-.023-.095-.322-.247-.852h-3.416v7.335999999999999h5.108v-6.008m-1.329 4.678h-2.45v-4.678h2.45zM472.769 259.893v4.678h-2.45v-4.678h-1.329v6.007h5.108v-6.007zM482.322 304.961l-1.187-2.773-1.74-.935a.7.7 0 0 1-.158-.12l1.639 3.828zM479.218 300.223l-.005-.005-.48-.459.941-.985-2.95-6.89-1.732-.969a.64.64 0 0 1-.208-.186l.033.077 4.232 9.885a.65.65 0 0 1 .169-.468M474.672 290.167l.004-.011-.223-.197.209.489a.7.7 0 0 1 .01-.281M472.958 272.545l-.178-.385 1.206-.558.436.943h4.414l3.556 7.149h.808a.664.664 0 0 1 .648.806l.232.205-.758.859 3.554 7.145 1.643.958q.031.02.06.043a.66.66 0 0 1 .444.624.6.6 0 0 1-.021.156l.219.209-.891.933 3.598 7.232 1.38.772c.155.086.26.226.309.383.297.066.52.33.52.648q-.001.09-.025.171l.206.212-.878.855 1.52 3.055h1.484l-16.553-33.276-.233-.468h-13.23l.569 1.329 2.649 6.188h1.007v1.321a.66.66 0 0 1 .581-.36h.269l-3.061-7.149z"></path><path d="m472.412 281.814-1.511-.881a.665.665 0 0 1-.307-.747c.012-.045.036-.084.057-.124h-.435l3.566 8.328.568 1.327.974-1.103zM437.412 280.062c.021.04.044.079.057.124a.66.66 0 0 1-.307.747l-1.511.881-2.912 6.801.974 1.102.568-1.327 3.565-8.328zM415.176 299.402l.959-.536 3.598-7.232-.891-.933.219-.209a.7.7 0 0 1-.021-.156c0-.289.186-.533.444-.624q.029-.024.059-.043l1.644-.958 3.554-7.145-.758-.859.232-.205a.664.664 0 0 1 .648-.806h.808l3.556-7.149h4.413l.436-.943.603.279.603.279-.178.385h4.514l-3.061 7.149h.269c.25 0 .468.144.581.359v-1.321h1.008l2.649-6.188.569-1.329h-13.23l-.233.468-13.788 27.717zM429.566 299.402l3.681-8.597.033-.077a.7.7 0 0 1-.209.187l-1.732.968-2.95 6.89.6.628zM433.39 290.167q.036.143.009.282l.21-.49-.223.197z"></path><path d="M466.485 279.281h-1.329v-.548h-8.102v.548h-1.329v-.548h-8.103v.548h-1.329v-.548h-8.885000000000002v1.321l.004.008h33.239000000000004l.003-.008v-1.321h-4.169zM425.72 289.671h1.465l1.62-3.504-.211-.239-1.565.913zM431.799 279.694l3.306-7.149.178-.385-.603-.279-.603-.279-.436.943-3.307 7.149zM428.868 284.23l1.14-.664 1.176-2.543h-1.464l-1.266 2.738zM424.18 294.366l1.124-.629 1.266-2.738h-1.464l-1.351 2.922zM427.152 299.402h1.838l-.6-.629-3.262-3.415-1.198.67.212.222zM424.18 294.366l-.425-.445-2.791-2.922h-1.261a.664.664 0 0 1-.644-.508l-.219.209.891.933 3.25 3.402z"></path><path d="m424.18 294.366-1.198.67-6.847 3.83-.959.536h2.722l4.482-2.507 1.55-.867 1.198-.67 6.212-3.475 1.732-.968a.67.67 0 0 0 .319-.748l-.004-.011-.096.085-.498.44-.893-1.011h-9.723l-1.964 1.145a.667.667 0 0 1-.909-.239.66.66 0 0 1 .18-.866.66.66 0 0 0-.444.624q0 .081.021.156a.664.664 0 0 0 .644.508H430.2l-4.894 2.737zM428.868 284.23l-.415-.469-2.417-2.738h-1.173a.664.664 0 0 1-.648-.522l-.232.205.758.859 2.957 3.348z"></path><path d="m429.765 285.246-1.171.682.211.239 3.094 3.504.893 1.01.498-.44.096-.085.223-.197.179-.157-.075-.085-.973-1.103z"></path><path d="M419.304 290.576a.666.666 0 0 0 .909.239l1.964-1.145 4.853-2.829 1.565-.913 1.17-.683 5.886-3.432 1.511-.881a.665.665 0 0 0 .307-.747c-.012-.045-.036-.084-.057-.124l-.004-.008a.66.66 0 0 0-.581-.359h-11.965a.664.664 0 0 0 0 1.328h9.506l-4.361 2.542-1.14.665-1.17.682-6.511 3.796-1.644.958q-.032.02-.059.043a.665.665 0 0 0-.179.868M478.343 281.023h-1.464l1.175 2.543 1.14.664.415-.469zM480.878 289.671h1.464l-1.309-2.83-1.565-.913-.211.239zM487.736 301.332h-1.465l1.297 2.805 1.079.58.451-.438zM484.133 296.028l-.212.222 1.736 3.754h1.464l-1.438-3.109zM482.957 290.999h-1.465l1.266 2.738 1.125.629.425-.445zM477.728 279.694l-3.306-7.149-.436-.943-.604.279-.603.279.179.385 3.306 7.149z"></path><path d="m490.302 304.961 3.139-3.055.878-.855-.206-.212a.66.66 0 0 1-.639.493h-1.349l-3.027 2.946-.45.439.454.244z"></path><path d="m479.395 301.253 1.74.935 5.16 2.773h2.807l-.454-.244-1.079-.58-5.219-2.805h11.124c.307 0 .564-.21.639-.493a.7.7 0 0 0 .025-.171.665.665 0 0 0-.52-.648.662.662 0 0 1-.957.777l-1.419-.794h-10.905l-.643.673-.475-.454a.67.67 0 0 0-.17.468.66.66 0 0 0 .346.563M488.359 290.999h-1.261l-2.791 2.922-.425.445 1.198.67 3.25-3.402.891-.933-.219-.209a.66.66 0 0 1-.643.507"></path><path d="m484.133 296.028-1.198-.67-3.262 3.415-.941.985.48.459.006.006.475.454.643-.673 3.585-3.754z"></path><path d="M488.759 290.576a.666.666 0 0 1-.909.239l-1.964-1.145h-9.722000000000001l-.893 1.011-.498-.44-.096-.085-.004.011a.667.667 0 0 0 .319.747l1.732.969 6.212 3.475 1.198.67 1.55.867 5.558 3.108 1.419.794a.661.661 0 0 0 .957-.777.66.66 0 0 0-.309-.383l-1.38-.772-6.848-3.83-1.198-.67-1.125-.629-4.894-2.737h10.495000000000001a.664.664 0 0 0 .665-.665.66.66 0 0 0-.444-.624c.267.2.351.571.179.866M483.2 281.023h-1.173l-2.418 2.738-.415.469 1.17.682 2.957-3.348.758-.858-.232-.205a.66.66 0 0 1-.647.522"></path><path d="m474.773 290.241.497.44.893-1.01 3.094-3.504.211-.239-1.17-.682-2.975 3.368-.973 1.103-.075.085.179.158.222.196z"></path><path d="M470.594 280.186a.66.66 0 0 0 .307.747l1.511.881 5.886 3.432 1.17.682 1.565.913 4.853 2.83 1.964 1.145a.667.667 0 0 0 .909-.239.66.66 0 0 0-.18-.866q-.029-.024-.06-.043l-1.643-.958-6.511-3.797-1.17-.682-1.14-.665-4.36-2.542h9.506a.664.664 0 0 0 0-1.328h-11.964a.66.66 0 0 0-.581.36l-.003.007c-.023.039-.047.078-.059.123M446.293 279.281h1.329v-7.458h-1.329v6.91zM455.725 279.281h1.329v-7.458h-1.329v6.91zM465.156 279.281h1.329v-7.458h-1.329v6.91zM442.184 226.184l.046-.262h1.014v-4.402h-1.329v5.731h.071l.09-.471a.66.66 0 0 1 .108-.596M464.818 225.922h1.014l.046.262a.66.66 0 0 1 .108.595l.09.471h.071v-5.731h-1.329zM451.856 225.922l-.019.13q.083.058.147.144a.664.664 0 0 1-.147.928l-.174.127h4.738l-.175-.127a.664.664 0 0 1 0-1.072l-.019-.13h.378v-4.402h-1.329v4.402h-2.45v-4.402h-1.329v4.402zM444.507 221.52h1.329v4.402h-1.329zM448.286 221.52h1.329v4.402h-1.329zM458.448 221.52h1.329v4.402h-1.329zM462.227 221.52h1.329v4.402h-1.329z"></path><path d="M444.507 221.52h23.118v-4.652h-3.428l.072.583.092.746h1.935v1.994H441.77v-1.994h1.935l.092-.746.072-.583h-3.428v4.652h4.066"></path><path d="M456.292 216.869h-4.522l-.068.727-.057.602h4.772l-.057-.602zM457.566 233.816c-.003-.028 0-.056 0-.084q-.002-.053.005-.104c.005-.03.017-.059.026-.088.008-.026.012-.053.023-.078l.01-.015c.013-.027.032-.05.049-.075q.028-.045.062-.084.006-.009.012-.017l.885-.888a152 152 0 0 1-.716-4.026l-1.519-1.103c.322 2.118.72 4.335 1.162 6.572zM460.989 248.732l-.001-.013a.6.6 0 0 1-.004-.113v-.029a.7.7 0 0 1 .028-.143l.001-.007.713-2.201a287 287 0 0 1-2.331-10.083l-1.677-1.973-.002-.003c-.016-.019-.026-.043-.04-.064-.022-.033-.046-.066-.061-.102l-.004-.006c-.008-.02-.009-.041-.015-.061-.01-.032-.022-.063-.027-.096 1.024 5.185 2.29 10.478 3.42 14.894M463.897 259.417l.141.476h.496a.665.665 0 0 1-.57-1.006l.785-1.311a356 356 0 0 1-1.945-7.135l-1.58-1.296-.005-.005q-.012-.011-.024-.024a.6.6 0 0 1-.078-.084q-.005-.005-.009-.01l-.015-.027a.7.7 0 0 1-.069-.136q-.004-.007-.006-.016a364 364 0 0 0 2.879 10.574M465.824 227.056l-.953.956c.196.989.511 2.505.95 4.435l1.04.755q.008.007.014.014a.7.7 0 0 1 .133.133v.001q.004.005.006.011a.6.6 0 0 1 .078.155l.015.053a.6.6 0 0 1 .021.133q.002.028.002.056a.7.7 0 0 1-.029.185v.003l-.537 1.657c.709 2.9 1.62 6.362 2.749 10.159l2.074 2.441q.005.006.008.013a.7.7 0 0 1 .09.144l.007.018a.7.7 0 0 1 .04.143q.004.02.006.041a.7.7 0 0 1-.001.167l-.002.006a.7.7 0 0 1-.046.155q-.003.011-.007.022-.007.011-.014.021-.01.021-.02.041l-.754 1.259a186 186 0 0 0 2.378 6.916l1.911 1.567a.663.663 0 0 1-.421 1.178h.966l-.346-.902-.162-.427c-5.515-14.514-8.304-27.99-8.947-31.313l-.09-.471a.64.64 0 0 1-.159.275M465.878 226.184l-.046-.262h-.479c.17 0 .34.064.469.194q.032.032.056.068M462.227 225.922h-6.02l.019.13a.665.665 0 0 1 .781-.004l1.656 1.202h5.09l1.13-1.134a.66.66 0 0 1 .469-.195h-3.125z"></path><path d="M457.568 233.836c.005.033.018.064.027.096-.012-.039-.025-.077-.029-.117v.01zM460.998 248.767l-.009-.048.001.013q.002.018.008.035M461.117 249.032l-.025-.037q.007.014.015.027.007.005.01.01M457.598 233.539c.01-.031.018-.063.033-.093l-.01.015c-.012.025-.015.052-.023.078M471.485 248.91l.007-.022-.02.043q.007-.01.013-.021M466.47 234.404h-.914l-1.627 5.022-4.268-5.022h-1.437c-.2 0-.384-.09-.508-.237l.002.003 1.677 1.973 4.053 4.768-1.722 5.314-.713 2.201-.001.007a.663.663 0 0 1 1.055-.315l1.436 1.178h6.207l.603-1.006a.664.664 0 0 1 1.084-.076l-.008-.013-2.074-2.441-4.373-5.145 1.624-5.014.537-1.657a.67.67 0 0 1-.633.46m2.975 13.563h-6.887l1.9-5.866z"></path><path d="m470.312 248.29-.603 1.006-2.045 3.414-4.162-3.414-1.436-1.178a.665.665 0 0 0-1.083.458v.029a1 1 0 0 0 .004.113l.009.048a.6.6 0 0 0 .045.14q.021.046.05.089l.025.037q.035.045.078.084.011.013.024.024l.005.005 1.58 1.296 4.17 3.421-2.225 3.714-.785 1.311a.664.664 0 0 0 .57 1.006h10.031a.664.664 0 0 0 .421-1.178l-1.911-1.567-4.372-3.586 1.995-3.33.754-1.259c.008-.013.012-.027.02-.041l.02-.043a.7.7 0 0 0 .046-.155l.002-.006a.7.7 0 0 0 .001-.167q-.002-.02-.006-.041a.7.7 0 0 0-.04-.143l-.007-.018a.7.7 0 0 0-.09-.144.664.664 0 0 0-1.085.075m2.395 10.274h-7.0009999999999994l2.307-3.85zM463.753 227.251l-2.137 2.144-2.953-2.144-1.656-1.202a.66.66 0 0 0-.781.004.664.664 0 0 0 0 1.072l.175.127.004.003 1.519 1.103 2.743 1.991-2.028 2.034-.885.888q-.007.008-.012.017c-.024.025-.042.055-.062.084q-.027.036-.049.075c-.015.03-.023.062-.033.093-.009.03-.021.058-.026.088q-.007.052-.005.104c0 .028-.004.056 0 .084q.01.06.029.117c.006.02.007.042.015.061l.004.006c.016.036.039.069.061.102.014.021.024.045.04.064a.66.66 0 0 0 .508.237h8.246a.67.67 0 0 0 .632-.459v-.003a.7.7 0 0 0 .029-.185l-.002-.056a1 1 0 0 0-.021-.133q-.007-.027-.015-.053a.7.7 0 0 0-.078-.155l-.006-.011a.7.7 0 0 0-.133-.133l-.014-.014-1.04-.755-3.116-2.262 2.166-2.173.953-.956a.666.666 0 0 0 .054-.871q-.026-.035-.056-.068a.67.67 0 0 0-.469-.194h-.002a.66.66 0 0 0-.469.195zm.67 5.824h-4.599l1.931-1.937zM451.659 227.254l-1.519 1.103a157 157 0 0 1-.715 4.026l.885.888q.006.008.012.017c.024.025.042.055.062.084.017.025.036.048.049.075l.01.015c.012.025.015.052.023.078.009.029.021.058.026.088.006.035.005.069.005.104 0 .028.004.056.001.085v.01c.441-2.238.838-4.455 1.161-6.573M450.467 233.932c-.006.02-.007.042-.015.062l-.004.006c-.015.036-.039.069-.061.102-.014.021-.024.045-.04.064l-.002.003-1.677 1.973a287 287 0 0 1-2.331 10.083l.685 2.115a.7.7 0 0 1 .067.291q-.002.037-.007.072c1.128-4.41 2.39-9.691 3.414-14.866-.006.032-.019.064-.029.095M432.532 259.893h.966a.664.664 0 0 1-.421-1.178l1.911-1.567a186 186 0 0 0 2.378-6.916l-.754-1.259q-.011-.02-.019-.041-.007-.01-.014-.021l-.007-.022a.7.7 0 0 1-.046-.155l-.001-.006a.7.7 0 0 1-.001-.167l.006-.041a.7.7 0 0 1 .041-.143l.007-.018a.7.7 0 0 1 .09-.144l.008-.013 2.074-2.441a216 216 0 0 0 2.749-10.159l-.537-1.657v-.003a.7.7 0 0 1-.029-.185q0-.028.002-.056a1 1 0 0 1 .021-.133q.007-.027.015-.053a.7.7 0 0 1 .079-.155l.006-.011v-.001a.7.7 0 0 1 .133-.133l.014-.014 1.04-.755c.439-1.93.753-3.447.95-4.435l-.953-.956a.7.7 0 0 1-.162-.276l-.09.471c-.643 3.323-3.43 16.794-8.947 31.313l-.162.427zM444.166 259.417a357.373 357.373 0 0 0 2.864-10.516c-.006.014-.017.025-.024.039l-.008.012a.7.7 0 0 1-.131.165q-.014.015-.029.029l-.05.041-1.53 1.255a368 368 0 0 1-1.945 7.135l.785 1.311a.664.664 0 0 1-.57 1.006h.496zM443.18 226.117l1.13 1.134h5.09l1.656-1.202a.66.66 0 0 1 .781.004l.019-.13h-9.626l-.046.262q.026-.035.056-.068a.665.665 0 0 1 .94 0"></path><path d="M450.497 233.826v-.01c-.005.04-.018.078-.029.117.01-.032.022-.063.027-.096zM436.577 248.91q.007.011.014.021l-.02-.043q.003.011.006.022M441.188 233.216a.7.7 0 0 0-.133.133v.001a.6.6 0 0 1 .133-.134M450.432 233.446c.015.03.023.062.033.093-.008-.026-.012-.053-.023-.078q-.006-.008-.01-.015M447.045 248.844a1 1 0 0 1-.039.095c.007-.013.018-.025.024-.039.008-.017.009-.038.015-.056M437.75 248.29l.603 1.006h6.207l1.436-1.178a.664.664 0 0 1 1.069.648c.004-.021.014-.041.016-.063q.006-.035.007-.072a.7.7 0 0 0-.067-.291l-.685-2.115-1.722-5.314 4.053-4.768 1.677-1.973.002-.003a.66.66 0 0 1-.508.237h-1.437l-4.268 5.022-1.627-5.022h-.914a.66.66 0 0 1-.632-.459l.537 1.657 1.624 5.014-4.373 5.145-2.074 2.441-.008.013a.663.663 0 0 1 1.084.075m5.853-6.189 1.9 5.866h-6.887z"></path><path d="M435.294 259.893h8.235a.665.665 0 0 0 .57-1.006l-.785-1.311-2.225-3.714 4.17-3.421 1.53-1.255.05-.041q.015-.014.029-.029a.6.6 0 0 0 .131-.165l.008-.012a1 1 0 0 0 .039-.095q.012-.039.02-.078a.663.663 0 0 0-1.069-.648l-1.436 1.178-4.162 3.414-2.045-3.414-.603-1.006a.665.665 0 0 0-.911-.229.6.6 0 0 0-.173.153.7.7 0 0 0-.09.144l-.007.018a.7.7 0 0 0-.041.143q-.004.02-.006.041a.7.7 0 0 0 .001.167l.001.006a.7.7 0 0 0 .066.198q.009.021.019.041l.754 1.259 1.995 3.33-4.372 3.586-1.911 1.567a.663.663 0 0 0 .421 1.178h1.7970000000000002zm4.756-5.179 2.307 3.85h-7.0009999999999994zM441.593 234.404h8.245999999999999c.2 0 .384-.09.508-.237.016-.019.026-.043.04-.064.022-.033.046-.066.061-.102l.004-.006c.008-.02.009-.041.015-.062.012-.039.025-.077.029-.117.003-.028 0-.056-.001-.085q.002-.053-.005-.104c-.005-.03-.017-.059-.026-.088-.01-.031-.018-.063-.033-.093q-.022-.039-.049-.075c-.02-.029-.038-.058-.062-.084q-.006-.008-.012-.017l-.885-.888-2.028-2.034 2.743-1.991 1.519-1.103.004-.003.174-.127a.664.664 0 1 0-.781-1.076l-1.656 1.202-2.954 2.144-2.137-2.144-1.13-1.134a.665.665 0 0 0-.94-.001q-.03.032-.056.068a.66.66 0 0 0-.107.596c.031.1.082.196.162.276l.953.956 2.166 2.173-3.116 2.262-1.04.755q-.008.007-.014.014a.7.7 0 0 0-.133.133q-.004.005-.006.011a.7.7 0 0 0-.079.155l-.015.053a.6.6 0 0 0-.021.133q-.002.028-.002.056a.7.7 0 0 0 .029.185v.003a.67.67 0 0 0 .635.46m4.714-3.266 1.931 1.937h-4.599zM456.319 128.632h1.329v2.341h-1.329zM450.414 128.632h1.329v2.341h-1.329zM456.319 128.632h2.588v-2.428h-1.329v1.099h-7.094v-1.099h-1.329v2.428h2.588zM457.578 126.204h2.431v-7.579h-3.552v1.329h2.223v4.921h-9.298v-4.921h2.224v-1.329h-3.553v7.579h2.431z"></path><path d="M456.457 119.954v-7.401h-1.761v.664h-1.328v-.664h-1.761v7.401zm-3.523-6.072h2.194v4.743h-2.194zM454.696 105.576v.664h.881v-4.365h-3.09v4.365h.88v-.664zm-.881-2.372h.432v1.707h-.432z"></path><path d="M454.031 113.218h.665v-7.6419999999999995h-1.329v7.6419999999999995zM454.342 193.422a.7.7 0 0 1 .005-.152 1 1 0 0 1 .025-.103q.003-.014.007-.029l1.065-2.872c-.164-2.293-.301-4.308-.412-5.977l-.596-1.094c-.104 1.594-.239 3.603-.404 5.942.094 1.336.198 2.778.311 4.314q-.001-.015-.001-.029M456.476 217.912a.67.67 0 0 1-.077-.611l1.016-2.718a1083 1083 0 0 1-.67-7.611l-1.398-2.423-.011-.019a.66.66 0 0 1-.019-.592l.993-2.237c-.162-2.015-.312-3.947-.45-5.775l-1.417-2.197a.7.7 0 0 1-.062-.122l-.001-.005a.6.6 0 0 1-.034-.137l-.003-.011c.483 6.542 1.137 14.753 1.95 23.416l.068.727.057.602h.605a.67.67 0 0 1-.547-.287M454.696 130.973v5.671-4.342h1.691l.192 4.342h.694a.664.664 0 0 1 .649.807l-1.087 4.94c.114 2.548.243 5.39.378 8.342h.695a.666.666 0 0 1 .641.839l-1.111 4.065.207 4.428 1.536 4.799q.006.021.009.043a.5.5 0 0 1 .02.147v.05a1 1 0 0 1-.016.105l-.004.03-1.099 4.082c.128 2.574.246 4.865.348 6.692l1.663 5.105c.007.02.008.041.013.062q.01.037.015.076.003.041.001.083 0 .037-.003.074-.007.043-.021.086-.006.029-.013.056l-1.007 2.714c.176 1.741.386 3.715.617 5.813l1.616 2.966.011.021a.66.66 0 0 1 .034.516l-.023.058-.987 2.224c.214 1.863.432 3.742.648 5.577l1.553 2.409q.038.059.062.122l.003.011a.7.7 0 0 1 .033.131q.002.021.003.043a.7.7 0 0 1-.005.153 1 1 0 0 1-.024.101q-.003.015-.008.031l-.958 2.564c.349 2.915.66 5.482.89 7.361l1.633 2.829a.666.666 0 0 1-.576.997h.752l-.092-.746-.072-.583c-.525-4.262-3.754-30.613-4.245-37.823-.533-7.823-2.247-47.042-2.264-47.437l-.028-.635h-2.964zM454.695 137.973zv7.955h-.001z"></path><path d="m452.192 158.927 5.031-2.013v.002l-5.03 2.013zM450.911 174.143l7.562-2.63.001.003-7.562 2.63zM458.506 200.029l2.271 3.521h1.219a.66.66 0 0 1 .558.305l-1.553-2.409-1.85-2.869zM455.86 195.925l1.785 2.768.645-1.452-2.069-3.209h-1.219a.66.66 0 0 1-.558-.305z"></path><path d="m456.595 187.159-1.152 3.106-1.065 2.872q-.004.014-.007.029a1 1 0 0 0-.025.103l-.006.048a1 1 0 0 0 .001.104v.031l.003.011a1 1 0 0 0 .035.142.663.663 0 0 0 .62.427h4.713l-1.425 3.209-.645 1.452-1.335 3.007-.993 2.237a.6.6 0 0 0-.048.15.66.66 0 0 0 .067.442l.011.019 1.398 2.423 2.133 3.695-1.462 3.916-1.016 2.718a.665.665 0 0 0 .623.897h6.586a.666.666 0 0 0 .576-.997l-1.633-2.829-2.209-3.828 1.32-3.533.958-2.564c.004-.01.004-.021.008-.031a1 1 0 0 0 .024-.101l.006-.05a1 1 0 0 0-.001-.103q0-.022-.003-.043a.7.7 0 0 0-.033-.131l-.003-.011a.664.664 0 0 0-.62-.427h-5.054l1.564-3.521.645-1.452 1.202-2.708.987-2.224.023-.058a.662.662 0 0 0-.034-.516l-.011-.021-1.616-2.966-1.65-3.028 1.033-2.785 1.007-2.714c.007-.018.008-.038.013-.056a.7.7 0 0 1-.099.216.67.67 0 0 1-.538.274h-.955l-1.305 3.518-1.918-3.518h-.778l-.078 1.206.596 1.094zm5.862 29.71h-4.478l1.759-4.71zm-1.418-11.99-1.559 4.174-2.409-4.174zm-3.6-16.173 2.178 3.997h-3.661zM455.083 152.062h1.954l-.9 3.293.743 2.322.557-2.04 1.111-4.065a.66.66 0 0 0-.641-.839h-2.908l1.835-8.342 1.087-4.94a.665.665 0 0 0-.649-.807h-2.5759999999999996v1.329h1.75l-1.75 7.954v5.064q.072.09.11.204z"></path><path d="M458.513 181.989h.955a.67.67 0 0 0 .538-.274.7.7 0 0 0 .099-.216q.014-.043.021-.086.003-.037.003-.074.003-.041-.001-.083a1 1 0 0 0-.015-.076c-.005-.021-.006-.042-.013-.062l-1.663-5.105-1.176-3.612.829-3.081 1.099-4.082q.003-.015.004-.03a.66.66 0 0 1-.646.522.67.67 0 0 1-.633-.462l-.277-.867h-2.593l1.194-4.372-.743-2.322-.798 2.922-.001.002v8.184l.001.002 1.179 3.62-1.179 4.383-.001.004v2.244c-.003.043-.064 1.085-.182 2.92h3.999zm-3.425-16.258h2.592l-1.172 4.358zm1.541 9.021 1.925 5.908h-3.514z"></path><path d="m455.494 157.708.743 2.322 1.399 4.372.277.867a.666.666 0 0 0 .835.43.66.66 0 0 0 .46-.595v-.05a.7.7 0 0 0-.02-.147c-.004-.014-.004-.029-.009-.043l-1.536-4.799-.764-2.388-.743-2.322-1.054-3.293-.277-.867a.7.7 0 0 0-.11-.204v4.22l.001.002z"></path><path d="M443.703 218.198h.752a.67.67 0 0 1-.576-.332.67.67 0 0 1 0-.665l1.633-2.829c.229-1.879.541-4.446.89-7.361l-.957-2.564c-.004-.011-.004-.022-.008-.033a.7.7 0 0 1-.028-.251l.003-.044a.7.7 0 0 1 .032-.13l.004-.013a.7.7 0 0 1 .062-.122l1.553-2.408c.216-1.835.434-3.715.648-5.578l-.987-2.224-.023-.058a.662.662 0 0 1 .034-.516l.011-.021 1.617-2.966c.231-2.098.442-4.072.617-5.813l-1.007-2.714c-.007-.018-.008-.038-.013-.056q-.014-.043-.02-.086-.003-.037-.003-.074-.002-.042.001-.083.006-.039.015-.076c.005-.021.006-.042.012-.062l1.663-5.105c.101-1.828.22-4.118.348-6.692l-1.098-4.082q-.002-.015-.005-.03a1 1 0 0 1-.016-.105q-.001-.025.001-.05a.7.7 0 0 1 .019-.147q.005-.022.009-.043l1.536-4.799.207-4.428-1.111-4.065a.666.666 0 0 1 .641-.839h.695c.135-2.952.263-5.793.377-8.342l-1.087-4.94a.665.665 0 0 1 .649-.807h.694l.192-4.342h1.691v4.342h.523a.664.664 0 0 1 0 1.329h-.523v7.954l1.172 5.328q.002.015.003.032.007.045.009.09v.053a.7.7 0 0 1-.022.142l-.006.029-1.156 3.613v5.417l1.162 4.252a.66.66 0 0 1-.007.39l-1.155 3.546v8.003l1.165 4.33a.7.7 0 0 1 .022.156q-.002.019-.003.038a.6.6 0 0 1-.014.123q-.008.027-.017.054a1 1 0 0 1-.038.099q-.004.01-.008.021l-1.442 2.647c-.111 1.669-.249 3.684-.412 5.977l1.065 2.872q.004.015.007.03a1 1 0 0 1 .024.1l.006.05a1 1 0 0 1-.001.103v.03a1363 1363 0 0 0 .715-10.256l.078-1.206c.118-1.834.179-2.877.182-2.92v-48.095h-4.292l-.028.635c-.017.395-1.731 39.614-2.264 47.437-.491 7.21-3.72 33.562-4.245 37.823l-.072.583z"></path><path d="M451.77 216.869c.813-8.664 1.467-16.874 1.95-23.416l-.003.012a.7.7 0 0 1-.034.136l-.002.006a.6.6 0 0 1-.062.122l-1.417 2.197c-.138 1.828-.289 3.76-.45 5.775l.993 2.237a.6.6 0 0 1 .048.15.66.66 0 0 1-.067.442l-.011.019-1.398 2.423a1083 1083 0 0 1-.67 7.611l1.015 2.719a.665.665 0 0 1-.623.897h.605l.057-.602zM446.067 203.55h1.219l2.271-3.521-.645-1.452-1.85 2.869-1.553 2.408a.67.67 0 0 0 .558-.304"></path><path d="M453.62 193.728a.67.67 0 0 0-.558.304h-1.219l-2.069 3.209.645 1.452 1.785-2.768z"></path><path d="M451.586 217.912a.67.67 0 0 0 .077-.611l-1.015-2.719-1.462-3.916 2.133-3.695 1.398-2.423.011-.019a.66.66 0 0 0 .019-.592l-.993-2.237-1.335-3.007-.645-1.452-1.425-3.209h4.713a.66.66 0 0 0 .62-.426l.002-.006a.7.7 0 0 0 .034-.136l.003-.012v-.032a.7.7 0 0 0-.005-.153 1 1 0 0 0-.024-.1q-.003-.016-.007-.03l-1.065-2.872-1.152-3.106 1.564-2.87 1.442-2.647q.005-.01.008-.021a1 1 0 0 1-.064.107.67.67 0 0 1-.527.26h-1.119l-1.918 3.518-1.305-3.518h-.955a.67.67 0 0 1-.538-.274.7.7 0 0 1-.099-.216q.006.029.013.056l1.007 2.714 1.033 2.785-1.65 3.028-1.617 2.966-.011.021a.66.66 0 0 0-.034.516l.023.058.987 2.224 1.203 2.708.645 1.452 1.563 3.521h-5.053a.66.66 0 0 0-.62.427l-.004.013a.7.7 0 0 0-.032.13l-.003.044a.7.7 0 0 0 .005.153 1 1 0 0 0 .023.098q.003.017.008.033l.957 2.564 1.32 3.534-2.209 3.828-1.633 2.829a.666.666 0 0 0 .576.997h6.586a.66.66 0 0 0 .546-.285m-.962-29.206 1.483 3.997h-3.661zm-3.6 16.173h3.967l-2.408 4.173zm-1.419 11.99 2.719-4.711 1.759 4.711zM451.926 155.355l-.9-3.293h1.954l.277-.867a.664.664 0 0 1 1.286.092l-.003-.032-1.172-5.328-1.75-7.954h2.273a.664.664 0 0 0 0-1.329h-3.0989999999999998a.664.664 0 0 0-.649.807l1.087 4.94 1.835 8.342h-2.908a.666.666 0 0 0-.641.839l1.111 4.065.557 2.04z"></path><path d="M448.594 181.989h5.296a.66.66 0 0 0 .591-.367 1 1 0 0 0 .038-.099q.01-.026.017-.054a1 1 0 0 0 .014-.123q.002-.019.003-.038a.6.6 0 0 0-.022-.156l-1.165-4.33-1.179-4.383 1.179-3.62 1.155-3.546a.67.67 0 0 0 .007-.39l-1.162-4.252-.798-2.922-.743 2.322 1.194 4.372h-2.593l-.277.867a.666.666 0 0 1-.835.43.66.66 0 0 1-.444-.49q.002.015.005.03l1.098 4.082.829 3.081-1.177 3.612-1.663 5.105c-.007.02-.008.041-.012.062q-.01.037-.015.076-.003.042-.001.083 0 .037.003.074.008.043.02.086a.7.7 0 0 0 .099.216c.125.17.325.272.538.272m1.789-16.258h2.592l-1.42 4.358zm1.051 9.021 1.589 5.908h-3.514z"></path><path d="M449.313 165.699a.666.666 0 0 0 .835-.43l.277-.867 1.399-4.372.743-2.322.798-2.495 1.156-3.613.006-.029q.007-.027.012-.056a.6.6 0 0 0 .001-.229.665.665 0 0 0-1.286-.092l-.277.867-1.054 3.293-.743 2.322-.764 2.388-1.536 4.799q-.006.021-.009.043-.007.027-.012.055a1 1 0 0 0-.007.092l-.001.05a.67.67 0 0 0 .462.596"></path><path d="M589.416 338.695h-11.668v-5.768a.73.73 0 0 0-.731-.731h-8.859v-4.497c0-.012-.006-.022-.007-.035a.7.7 0 0 0-.045-.222q-.014-.034-.032-.067a.7.7 0 0 0-.082-.134l-3.238-3.964v-37.759h2.672a.73.73 0 0 0 .732-.731v-4.331a.73.73 0 0 0-.732-.731h-2.729l-1.502-18.361.001-.006c-.024-.322-1.505-20.481-2.593-35.936l.76.62a.73.73 0 0 0 .467.169l.099-.006a.74.74 0 0 0 .495-.298l3.107-4.324.595.452a1.24 1.24 0 0 0 1.729-.236l2.407-3.165a1.24 1.24 0 0 0-.235-1.73l-.629-.478 2.109-2.908a.73.73 0 0 0-.132-.996l-7.465-6.085a.73.73 0 0 0-.559-.163.74.74 0 0 0-.494.29l-2.515 3.393-.835-.883a20 20 0 0 1-.042-1.085c.095-2.457-1.194-3.268-1.546-3.442l.001-.002-1.32-.728-2.103-8.987c.246-.54.422-1.107.509-1.696l1.428-1.456c2.604-2.167 5.579-4.599 5.867-4.776l.343-.238-.024-.055c.096-.153.089-.314.086-.388a.73.73 0 0 0-.734-.701l-.104.009c-.166.021-2.842.258-5.507.49 1.833-5.127 1.833-5.403 1.833-5.539a.76.76 0 0 0-.415-.669c-.436-.212-.626-.307-5.893 3.542l-2.153-6.203a.73.73 0 0 0-1.372-.024l-2.363 6.049-4.848-3.259a.75.75 0 0 0-.833.013.74.74 0 0 0-.281.784l1.307 4.901-3-.53-1.612-5.826c.461-2.029.992-4.239 1.132-4.614.317-.843-.667-2.523-1.599-3.846a3.2 3.2 0 0 0-.595-.435l.087-1.959c1.12-.672 1.954-1.768 2.221-3.09a.732.732 0 0 0-.717-.877h-3.259v-.695a.73.73 0 0 0-.731-.731h-1.698a.829.829 0 0 1 0-1.656h4.195a2.294 2.294 0 0 0 2.291-2.291.732.732 0 0 0-1.462 0 .83.83 0 0 1-.828.828h-4.195a2.293 2.293 0 0 0-2.29 2.291c0 1.138.835 2.077 1.923 2.254h-2.027a.73.73 0 0 0-.718.876c.287 1.422 1.226 2.584 2.475 3.235l.043 1.436-.087.012a1.24 1.24 0 0 0-.82.475c-.2.264-.286.588-.241.912l.529 3.941c.062.464.382.838.803.992l.059 2.017a.73.73 0 0 0 .732.71h.875c-.059 1.933-.269 8.772-.274 9.116l-.001.089c-.02 1.531-.023 1.766.313 2.997.065.238.076 1.061.052 2.016-.507.437-1.618 1.672-1.183 3.853.031.16.315 1.353 1.47 2.253l.662 8.105c.002.018.012.033.014.051l-.902 2.502a.73.73 0 0 0 .075.643l1.66 2.569c-.331.729-.572 1.721-.175 2.774.003.012.262 1.271-.02 2.884l-2.277 19.281c-2.154 8.092-4.464 16.747-6.147 23.044a.73.73 0 0 0 .287.79.7.7 0 0 0 .176.087l-4.454 17.626H519.4a.73.73 0 0 0-.731.731v4.331c0 .403.328.731.731.731h2.543v37.767l-3.116 3.965c-.029.036-.048.078-.069.118-.01.02-.025.036-.034.057a.7.7 0 0 0-.049.242c-.001.011-.006.02-.006.031v4.497h-8.86a.73.73 0 0 0-.732.731v5.768h-11.126a.73.73 0 0 0-.732.732v5.777c0 .404.328.732.732.732h91.466a.73.73 0 0 0 .731-.732v-5.777a.733.733 0 0 0-.732-.729zm-79.607 1.463h78.877v4.315h-90.004v-4.315zm.731-6.499h65.745v5.036H510.54zm12.867-48.141h39.884v37.289h-39.884zm-.376 38.752h40.645l2.205 2.698h-44.97zm-2.899 4.289h46.563v3.637h-46.563zm0-47.371h46.563v2.867h-46.563zm14.35-71.008 2.423-6.723a.73.73 0 1 0-1.377-.497l-.458 1.27-.355-4.34a.7.7 0 0 0 .339-.347.727.727 0 0 0-.367-.967c-1.266-.567-1.508-1.698-1.518-1.745a3.1 3.1 0 0 1-.017-1.183c.041.029.08.061.127.082.113.05 1.143.482 2.403.482a4.8 4.8 0 0 0 1.484-.225c1.003-.328 2.041-1.038 2.615-2.135l.103.897.06 1.367c.019.392.34.698.731.698h.022l.011-.001a.73.73 0 0 0 .655-.481l4.122 3.64-1.763 5.435a.73.73 0 0 0 .046.557.71.71 0 0 0 .419.36l.233.039a.73.73 0 0 0 .696-.506l1.648-5.083 2.888 1.162-3.217 5.691-10.322 9.556c-.019-.929-.16-1.54-.172-1.581-.476-1.275.583-2.549.596-2.564l2.404-2.867a.73.73 0 0 0-.089-1.032.73.73 0 0 0-1.031.09l-2.233 2.664zm1.744-44.28c-.574 1.056-1.732 1.752-3.007 1.752-1.274 0-2.432-.697-3.006-1.752zm-3.007 3.216c.36 0 .708-.051 1.049-.125l-.026.583c-.046.001-.09-.015-.136-.008l-1.67.224-.022-.742c.264.042.532.068.805.068zm.855 1.929.467 3.488-2.762.371-.468-3.488zm-.124 5.044-.067 1.493h-1.219l-.038-1.315zm.632 2.955a.727.727 0 0 0 .729-.698l.115-2.556a1.22 1.22 0 0 0 .595-1.224l-.247-1.845c.426.728.665 1.28.698 1.471-.244.72-.916 3.634-1.209 4.924a.74.74 0 0 0 .01.355l1.774 6.41v.001l1.716 6.202c-.046 1.761-1.711 2.401-2.05 2.512-.881.287-1.844.102-2.38-.049.063-1.235.118-3.056-.055-3.687-.281-1.029-.28-1.145-.262-2.593l.001-.09c.002-.148.05-1.846.273-9.096l.001-.037zm23.544 31.438-1.627 1.373q-.01.004-.018.01-.006.007-.013.016l-3.982 3.36 3.151-10.288 1.647.907c.032.015.783.389.718 2.073-.007.215.038 1.122.124 2.549zm6.484 8.562 2.13-2.8 2.221 1.687-2.131 2.8zm2.833-4.105a1.236 1.236 0 0 0-1.727.236l-2.41 3.166a1.24 1.24 0 0 0-.238.911c.043.327.212.617.475.819l.824.626-2.677 3.725-1.227-1.001c-.278-3.964-.522-7.521-.7-10.224l3.814-5.145 6.34 5.168-1.683 2.32zm-33.819 23.746c.943-3.547 1.888-7.096 2.737-10.307l.034-.038 16.998-21.057c-3.221 10.519-12.591 41.109-13.357 43.473-.794.699-6.381 4.801-11.996 8.862 1.007-3.767 3.299-12.349 5.584-20.933zm10.447-26.874-6.252 11.058c1.139-4.317 1.615-6.122 1.761-6.9zm-2.759-17.479-.143-1.219c-.019-.623-.218-1.107-.59-1.438a1.5 1.5 0 0 0-.491-.294l-.316-1.142a49 49 0 0 0 1.114 1.214l1.486 1.678.006.041c.019.121.056.237.081.356.042.199.08.398.141.592l.038.11-.401.92zm10.538-.164a3.165 3.165 0 0 1-3.161 3.161 3.164 3.164 0 0 1-3.161-3.161v-1.424c1.009-.403 2.293-1.109 3.212-2.301.492.862 1.421 1.903 3.11 2.626zm-6.78 2.843q.3.38.673.692v.544l-.789-.697zm2.136 1.516c.468.16.962.266 1.483.266.602 0 1.173-.124 1.701-.334v2.197l-3.184-1.282zm4.34 4.171 2.539 1.399-13.257 16.423 10.195-18.032zm.821-1.216-.513-.283v-3.677q.115-.11.222-.229zm1.188-9.367c-3.655-.946-3.938-3.396-3.949-3.501a.73.73 0 0 0-.639-.652.726.726 0 0 0-.777.478c-.863 2.409-3.834 3.193-4.405 3.322a4.93 4.93 0 0 1 4.904-4.496 4.93 4.93 0 0 1 4.923 4.877c-.02-.008-.036-.023-.057-.028zm-18.642 87.61 1.455-11.734c.005-.041-.007-.078-.009-.117l4.02-8.255-2.493 20.107zm-4.325 0 3.826-7.857-.974 7.857zm10.757-28.28c.103-.23 3.582-11.529 10.352-33.624l4.407-3.719-3.368 48.464-13.133-9.624c1.629-1.251 1.695-1.393 1.742-1.497zm.874 5.229 2.513 1.841-2.485 21.21h-2.886zm3.871 2.836 2.844 2.084-2.124 18.131h-3.088zm4.201 3.079 2.651 1.942a.7.7 0 0 0 .198.102l-1.768 15.092h-3.088zm4.787-1.915 3.017.606-2.16 18.444h-3.088zm7.054 5.648-1.631 13.404h-3.093l2.127-18.155 2.245.451zm-.157 13.403.75-6.162.504 6.162zm-7.529-20.669 3.216-46.269.577-.487c.739 11.529 2.975 42.074 3.425 48.206zm-.553-56.732-.361-5.193 1.342 5.734zm2.495-12.51a8 8 0 0 0-1.111-2.251c.026.001.048.014.075.012l3.344-.292.859-.076c-.795.646-1.856 1.519-3.167 2.607zM554.6 186.6c-.014.038-.004.078-.011.118a8 8 0 0 0-.848-.788c-.021-.021-.032-.047-.056-.065-.022-.017-.048-.021-.071-.035a8 8 0 0 0-1.416-.889c1.342-.983 2.87-2.079 3.991-2.848a336 336 0 0 1-1.589 4.507zm-5.452-2.452c-.036-.005-.068-.021-.105-.021-.023 0-.043.011-.066.013-.096-.004-.191-.013-.288-.013-.531 0-1.047.051-1.548.144l1.861-4.764 1.695 4.883a8 8 0 0 0-1.549-.242zm-6.093 2.218c-.002-.007.002-.014 0-.021l-1.102-4.126 3.695 2.482a7.9 7.9 0 0 0-2.593 1.665zm-1.992 3.123a117 117 0 0 1-2.197-2.524l-.089-.321 3.454.611c.013.002.025-.005.037-.003a8 8 0 0 0-1.205 2.237zm-5.122 29.849 1.709-1.582c-.587 2.257-1.571 5.984-2.755 10.451zm2.445 34.527 2.336 1.712-11.76 24.148h-5.348l4.67-18.479c5.123-3.697 8.222-5.97 10.102-7.381z" style="stroke: rgb(0, 0, 0); stroke-width: 0.2; stroke-miterlimit: 10;"></path><path d="M358.65 135.802a.354.354 0 0 1-.354-.354v-22.487a.354.354 0 0 1 .709 0v22.487a.354.354 0 0 1-.355.354zM360.064 100.613h-2.822a.355.355 0 1 1 0-.708h2.822a.354.354 0 0 1 0 .708zM325.998 298.827v-18.502h6.128v18.502h.709v-18.856a.354.354 0 0 0-.354-.354h-6.836a.353.353 0 0 0-.354.354v18.856zM391.67 281.549a.354.354 0 0 1-.354-.354v-.869h-.927a.353.353 0 1 1 0-.708h1.281c.196 0 .354.158.354.354v1.223a.354.354 0 0 1-.354.354z" style="stroke: rgb(33, 25, 21); stroke-width: 0.8; stroke-miterlimit: 10;"></path><path d="M392.024 298.827v-17.89a.354.354 0 0 0-.708 0v17.89zM385.188 298.827v-8.135a.354.354 0 0 0-.708 0v8.135z" style="stroke: rgb(33, 25, 21); stroke-width: 0.8; stroke-miterlimit: 10;"></path><path d="M384.834 293.406a.354.354 0 0 1-.354-.354v-13.081c0-.196.159-.354.354-.354h5.841a.353.353 0 1 1 0 .708h-5.487v12.726a.354.354 0 0 1-.354.355zM332.834 298.827v-29.23h13.242v29.23h.709v-29.585a.354.354 0 0 0-.354-.354H332.48a.354.354 0 0 0-.354.354v29.585z" style="stroke: rgb(33, 25, 21); stroke-width: 0.8; stroke-miterlimit: 10;"></path><path d="M371.951 298.827v-29.23h12.528v29.23h.709v-29.585a.354.354 0 0 0-.354-.354h-13.237a.354.354 0 0 0-.354.354v29.585zM348.546 176.699h-6.686a.354.354 0 0 1-.354-.354v-18.753c0-.196.159-.354.354-.354h6.686c.196 0 .354.158.354.354v18.753a.353.353 0 0 1-.354.354zm-6.332-.709h5.978v-18.044h-5.978zM365.385 140.245a.354.354 0 0 1-.354-.354v-3.953h-2.05a.354.354 0 0 1-.344-.268c-.013-.049-1.218-4.949-1.218-11.376v-10.285c0-1.134-1.054-2.774-1.619-3.399a.37.37 0 0 1-.091-.22c-.08-1.625-.667-11.493-1.059-18.049-.391 6.556-.976 16.424-1.055 18.049a.35.35 0 0 1-.091.22c-.566.626-1.623 2.265-1.623 3.399v10.285c0 6.427-1.205 11.327-1.218 11.376a.35.35 0 0 1-.344.268h-2.05v3.953a.354.354 0 0 1-.708 0v-4.308c0-.196.158-.354.354-.354h2.123c.246-1.098 1.134-5.45 1.134-10.935v-10.285c0-1.354 1.107-3.058 1.721-3.777.152-2.973 1.39-23.638 1.402-23.85a.354.354 0 0 1 .708 0c.013.212 1.254 20.879 1.408 23.85.612.719 1.716 2.424 1.716 3.777v10.285c0 5.486.888 9.837 1.134 10.935h2.123c.196 0 .354.159.354.354v4.308a.353.353 0 0 1-.353.354zM371.664 148.139a.354.354 0 0 1-.354-.354v-3.595h-25.316v3.595a.354.354 0 0 1-.708 0v-3.949c0-.196.159-.354.354-.354h26.025c.196 0 .354.159.354.354v3.949a.354.354 0 0 1-.355.354z" style="stroke: rgb(33, 25, 21); stroke-width: 0.8; stroke-miterlimit: 10;"></path><path d="M368.758 144.191a.354.354 0 0 1-.354-.355v-3.591H348.9v3.591a.354.354 0 1 1-.708 0v-3.945c0-.196.159-.354.354-.354h20.212c.196 0 .354.158.354.354v3.945a.354.354 0 0 1-.354.355zM373.052 157.667a.353.353 0 0 1-.354-.354v-9.173h-28.092v9.173a.354.354 0 0 1-.708 0v-9.528c0-.196.159-.354.354-.354h28.801c.196 0 .354.159.354.354v9.528a.356.356 0 0 1-.355.354zM381.378 269.597a.353.353 0 0 1-.354-.354v-13.704h-4.238a.353.353 0 0 1-.354-.354V176.7h-10.869v85.09a.354.354 0 0 1-.354.354h-13.11a.354.354 0 0 1-.354-.354V176.7h-10.868v78.485a.354.354 0 0 1-.354.354h-4.241v13.35h10.151a.353.353 0 1 1 0 .708h-10.506a.353.353 0 0 1-.354-.354v-14.059c0-.196.159-.354.354-.354h4.241v-78.485c0-.196.158-.354.354-.354h11.577c.196 0 .354.159.354.354v85.09h12.401v-85.09c0-.196.159-.354.354-.354h11.578c.196 0 .354.159.354.354v78.485h4.238c.196 0 .354.159.354.354v14.059a.354.354 0 0 1-.354.354z" style="stroke: rgb(33, 25, 21); stroke-width: 0.8; stroke-miterlimit: 10;"></path><path d="M375.445 176.699h-6.687a.354.354 0 0 1-.354-.354v-18.753c0-.196.159-.354.354-.354h6.687c.196 0 .354.158.354.354v18.753a.353.353 0 0 1-.354.354zm-6.333-.709h5.979v-18.044h-5.979zM364.319 135.988h-10.872a.354.354 0 0 1 0-.709h10.872a.355.355 0 0 1 0 .709zM358.65 255.367a.353.353 0 0 1-.354-.354V151.816a.354.354 0 0 1 .709 0v103.196a.355.355 0 0 1-.355.355zM350.055 298.827v-29.585a.353.353 0 1 0-.708 0v29.585zM359.396 298.827v-29.585a.354.354 0 0 0-.708 0v29.585zM368.738 298.827v-29.585a.354.354 0 0 0-.708 0v29.585zM353.176 298.827v-29.585a.354.354 0 0 0-.709 0v29.585zM365.643 298.827v-29.585a.354.354 0 0 0-.708 0v29.585zM356.165 298.827v-29.585a.354.354 0 0 0-.708 0v29.585zM362.566 298.827v-29.585a.355.355 0 0 0-.709 0v29.585zM346.431 262.689a.354.354 0 0 1-.354-.354v-82.702a.354.354 0 0 1 .708 0v82.702a.355.355 0 0 1-.354.354zM370.774 262.689a.354.354 0 0 1-.354-.354v-82.702a.353.353 0 1 1 .708 0v82.702a.353.353 0 0 1-.354.354zM353.447 172.717a.353.353 0 0 1-.354-.354v-20.547a.353.353 0 1 1 .708 0v20.547a.353.353 0 0 1-.354.354zM363.838 172.717a.353.353 0 0 1-.354-.354v-20.547a.353.353 0 1 1 .708 0v20.547a.353.353 0 0 1-.354.354z" style="stroke: rgb(33, 25, 21); stroke-width: 0.8; stroke-miterlimit: 10;"></path></svg>