
<?xml version="1.0" standalone="no"?>
<!DOCTYPE svg PUBLIC "-//W3C//DTD SVG 20010904//EN"
 "http://www.w3.org/TR/2001/REC-SVG-20010904/DTD/svg10.dtd">
<svg version="1.0" xmlns="http://www.w3.org/2000/svg"
 width="512.000000pt" height="512.000000pt" viewBox="0 0 512.000000 512.000000"
 preserveAspectRatio="xMidYMid meet">

<g transform="translate(0.000000,512.000000) scale(0.100000,-0.100000)"
fill="#FFFFFF" stroke="none">
<path d="M2382 4790 c-233 -30 -487 -132 -677 -272 -90 -66 -236 -213 -302
-302 -151 -205 -248 -453 -274 -706 -7 -70 -9 -411 -7 -1025 4 -889 5 -923 25
-1010 68 -297 193 -526 398 -730 207 -208 437 -332 733 -397 130 -29 413 -31
546 -5 293 59 541 191 751 402 207 206 329 432 398 733 22 96 22 103 22 1067
0 906 -1 977 -19 1070 -110 587 -565 1047 -1148 1160 -100 19 -345 27 -446 15z
m351 -325 c274 -41 525 -187 701 -407 76 -94 153 -237 191 -354 53 -162 55
-196 55 -1144 0 -526 -4 -903 -10 -945 -42 -291 -187 -549 -410 -727 -244
-196 -560 -281 -870 -233 -302 45 -583 223 -757 476 -85 124 -155 303 -178
459 -22 141 -22 1813 0 1945 45 277 189 524 407 699 243 195 558 278 871 231z"/>
<path d="M2495 3826 c-41 -18 -83 -69 -90 -109 -3 -18 -5 -190 -3 -384 3 -337
4 -353 24 -379 39 -53 71 -69 134 -69 63 0 95 16 134 69 20 27 21 39 21 406 0
367 -1 379 -21 406 -11 15 -32 37 -46 47 -33 25 -113 32 -153 13z"/>
</g>
</svg>
